<svg width="25" height="25" viewBox="0 0 25 25" fill="none" xmlns="http://www.w3.org/2000/svg">
<mask id="mask0_218_2543" style="mask-type:alpha" maskUnits="userSpaceOnUse" x="0" y="0" width="25" height="25">
<rect x="0.5" y="0.855957" width="24" height="24" fill="#D9D9D9"/>
</mask>
<g mask="url(#mask0_218_2543)">
<path d="M7.46676 23.856L10.3333 9.38921L8.05001 10.3392V13.6892H6.36676V9.23921L11.25 7.17271C11.4833 7.07271 11.7292 7.01154 11.9875 6.98921C12.2458 6.96704 12.4973 6.98654 12.7418 7.04771C13.0084 7.10871 13.2459 7.20871 13.4543 7.34771C13.6626 7.48654 13.8334 7.66154 13.9668 7.87271L15 9.50596C15.4888 10.2726 16.1153 10.8837 16.8793 11.3392C17.6431 11.7949 18.4778 12.0227 19.3833 12.0227V13.6892C18.2166 13.667 17.1833 13.417 16.2833 12.9392C15.3833 12.4615 14.5861 11.7699 13.8918 10.8642L13.05 14.4227L15.2833 16.4727V23.856H13.6168V17.6892L11.1168 15.5227L9.20001 23.856H7.46676ZM14 6.12271C13.4833 6.12271 13.0403 5.93796 12.6708 5.56846C12.3014 5.19896 12.1168 4.75587 12.1168 4.23921C12.1168 3.72254 12.3014 3.27954 12.6708 2.91021C13.0403 2.54071 13.4833 2.35596 14 2.35596C14.5167 2.35596 14.9598 2.54071 15.3293 2.91021C15.6986 3.27954 15.8833 3.72254 15.8833 4.23921C15.8833 4.75587 15.6986 5.19896 15.3293 5.56846C14.9598 5.93796 14.5167 6.12271 14 6.12271Z" fill="#1C1B1F"/>
</g>
</svg>
