<svg width="41" height="40" viewBox="0 0 41 40" fill="none" xmlns="http://www.w3.org/2000/svg">
<path d="M13.5 3.3335H27.5C32.8333 3.3335 37.1666 7.66683 37.1666 13.0002V27.0002C37.1666 29.5639 36.1482 32.0227 34.3353 33.8355C32.5225 35.6484 30.0637 36.6668 27.5 36.6668H13.5C8.16665 36.6668 3.83331 32.3335 3.83331 27.0002V13.0002C3.83331 10.4364 4.85176 7.97765 6.66461 6.1648C8.47747 4.35195 10.9362 3.3335 13.5 3.3335ZM13.1666 6.66683C11.5753 6.66683 10.0492 7.29897 8.92401 8.42419C7.79879 9.54941 7.16665 11.0755 7.16665 12.6668V27.3335C7.16665 30.6502 9.84998 33.3335 13.1666 33.3335H27.8333C29.4246 33.3335 30.9507 32.7014 32.076 31.5761C33.2012 30.4509 33.8333 28.9248 33.8333 27.3335V12.6668C33.8333 9.35016 31.15 6.66683 27.8333 6.66683H13.1666ZM29.25 9.16683C29.8025 9.16683 30.3324 9.38632 30.7231 9.77702C31.1138 10.1677 31.3333 10.6976 31.3333 11.2502C31.3333 11.8027 31.1138 12.3326 30.7231 12.7233C30.3324 13.114 29.8025 13.3335 29.25 13.3335C28.6974 13.3335 28.1675 13.114 27.7768 12.7233C27.3861 12.3326 27.1666 11.8027 27.1666 11.2502C27.1666 10.6976 27.3861 10.1677 27.7768 9.77702C28.1675 9.38632 28.6974 9.16683 29.25 9.16683ZM20.5 11.6668C22.7101 11.6668 24.8297 12.5448 26.3925 14.1076C27.9553 15.6704 28.8333 17.79 28.8333 20.0002C28.8333 22.2103 27.9553 24.3299 26.3925 25.8927C24.8297 27.4555 22.7101 28.3335 20.5 28.3335C18.2898 28.3335 16.1702 27.4555 14.6074 25.8927C13.0446 24.3299 12.1666 22.2103 12.1666 20.0002C12.1666 17.79 13.0446 15.6704 14.6074 14.1076C16.1702 12.5448 18.2898 11.6668 20.5 11.6668ZM20.5 15.0002C19.1739 15.0002 17.9021 15.5269 16.9644 16.4646C16.0268 17.4023 15.5 18.6741 15.5 20.0002C15.5 21.3262 16.0268 22.598 16.9644 23.5357C17.9021 24.4734 19.1739 25.0002 20.5 25.0002C21.8261 25.0002 23.0978 24.4734 24.0355 23.5357C24.9732 22.598 25.5 21.3262 25.5 20.0002C25.5 18.6741 24.9732 17.4023 24.0355 16.4646C23.0978 15.5269 21.8261 15.0002 20.5 15.0002Z" fill="#05343B"/>
</svg>
