<svg width="48" height="49" viewBox="0 0 48 49" fill="none" xmlns="http://www.w3.org/2000/svg">
<mask id="mask0_35_7731" style="mask-type:alpha" maskUnits="userSpaceOnUse" x="0" y="0" width="48" height="49">
<rect y="0.855957" width="48" height="48" fill="#D9D9D9"/>
</mask>
<g mask="url(#mask0_35_7731)">
<path d="M11.706 40.9236C10.0687 40.9236 8.675 40.35 7.525 39.2026C6.375 38.0556 5.8 36.6626 5.8 35.0236H2.5V11.9736C2.5 11.1736 2.8 10.4736 3.4 9.87363C4 9.27363 4.7 8.97363 5.5 8.97363H34.45V17.3236H39.7L46.5 26.3736V35.0236H42.95C42.95 36.6626 42.377 38.0556 41.231 39.2026C40.085 40.35 38.6933 40.9236 37.056 40.9236C35.4187 40.9236 34.025 40.35 32.875 39.2026C31.725 38.0556 31.15 36.6626 31.15 35.0236H17.6C17.6 36.657 17.027 38.0486 15.881 39.1986C14.735 40.3486 13.3433 40.9236 11.706 40.9236ZM11.7 37.9236C12.5 37.9236 13.1833 37.6403 13.75 37.0736C14.3167 36.507 14.6 35.8236 14.6 35.0236C14.6 34.2236 14.3167 33.5403 13.75 32.9736C13.1833 32.407 12.5 32.1236 11.7 32.1236C10.9 32.1236 10.2167 32.407 9.65 32.9736C9.08333 33.5403 8.8 34.2236 8.8 35.0236C8.8 35.8236 9.08333 36.507 9.65 37.0736C10.2167 37.6403 10.9 37.9236 11.7 37.9236ZM5.5 32.0236H6.6C7.16667 31.1236 7.884 30.407 8.752 29.8736C9.62 29.3403 10.5867 29.0736 11.652 29.0736C12.7173 29.0736 13.6917 29.3486 14.575 29.8986C15.4583 30.4486 16.1833 31.157 16.75 32.0236H31.45V11.9736H5.5V32.0236ZM37.05 37.9236C37.85 37.9236 38.5333 37.6403 39.1 37.0736C39.6667 36.507 39.95 35.8236 39.95 35.0236C39.95 34.2236 39.6667 33.5403 39.1 32.9736C38.5333 32.407 37.85 32.1236 37.05 32.1236C36.25 32.1236 35.5667 32.407 35 32.9736C34.4333 33.5403 34.15 34.2236 34.15 35.0236C34.15 35.8236 34.4333 36.507 35 37.0736C35.5667 37.6403 36.25 37.9236 37.05 37.9236ZM34.45 27.7236H43.75L38.2 20.3236H34.45V27.7236Z" fill="#05343B"/>
</g>
</svg>
