<svg width="48" height="49" viewBox="0 0 48 49" fill="none" xmlns="http://www.w3.org/2000/svg">
<mask id="mask0_35_7968" style="mask-type:alpha" maskUnits="userSpaceOnUse" x="0" y="0" width="48" height="49">
<rect y="0.855957" width="48" height="48" fill="#D9D9D9"/>
</mask>
<g mask="url(#mask0_35_7968)">
<path d="M8.34998 44.856V33.706H13.55V44.856H8.34998ZM18.95 44.856V19.106C17.15 19.906 15.8 21.0226 14.9 22.456C14 23.8893 13.55 25.756 13.55 28.056H10.55C10.55 23.9893 11.7666 20.8393 14.2 18.606C16.6333 16.3726 19.9333 15.256 24.1 15.256C27.7333 15.256 30.5166 14.581 32.45 13.231C34.3833 11.881 35.35 9.48929 35.35 6.05596H38.35C38.35 9.22262 37.625 11.781 36.175 13.731C34.725 15.681 32.5 17.006 29.5 17.706V44.856H26.5V32.106H21.95V44.856H18.95ZM24.104 12.156C23.1013 12.156 22.2416 11.799 21.525 11.085C20.8083 10.371 20.45 9.51262 20.45 8.50996C20.45 7.50729 20.807 6.64762 21.521 5.93096C22.235 5.21429 23.0933 4.85596 24.096 4.85596C25.0986 4.85596 25.9583 5.21296 26.675 5.92696C27.3916 6.64096 27.75 7.49929 27.75 8.50196C27.75 9.50462 27.393 10.3643 26.679 11.081C25.965 11.7976 25.1066 12.156 24.104 12.156Z" fill="#05343B"/>
</g>
</svg>
