<?xml version="1.0" encoding="UTF-8"?>
<svg xmlns="http://www.w3.org/2000/svg" xmlns:svg="http://www.w3.org/2000/svg" xmlns:sodipodi="http://sodipodi.sourceforge.net/DTD/sodipodi-0.dtd" xmlns:inkscape="http://www.inkscape.org/namespaces/inkscape" version="1.1" viewBox="0 0 261.9 82.6">
  <defs>
    <style>
      .cls-1 {
        fill: #05343b;
      }
    </style>
  </defs>
  <!-- Generator: Adobe Illustrator 28.6.0, SVG Export Plug-In . SVG Version: 1.2.0 Build 709)  -->
  <g>
    <g id="svg29">
      <sodipodi:namedview id="namedview29" bordercolor="#000000" borderopacity="0.25" inkscape:current-layer="svg29" inkscape:cx="145.98729" inkscape:cy="131.5" inkscape:deskcolor="#d1d1d1" inkscape:pagecheckerboard="0" inkscape:pageopacity="0.0" inkscape:showpageshadow="2" inkscape:window-height="449" inkscape:window-maximized="0" inkscape:window-width="1280" inkscape:window-x="1862" inkscape:window-y="491" inkscape:zoom="0.8973384" pagecolor="#ffffff" showguides="true">
        <sodipodi:guide id="guide29" inkscape:locked="false" orientation="0,-1" position="-23.402542,195.02119"/>
      </sodipodi:namedview>
      <path id="path1" class="cls-1" d="M12.1,80.2c-.3.4-.6.8-1,1.1-.3.3-.7.5-1.1.7-.4.2-.8.3-1.1.4-.4,0-.8.1-1.1.2-.1,0-.3,0-.3-.1,0-.1,0-.2-.1-.4,0-.2,0-.3,0-.4,0-.1.1-.2.3-.2.4,0,.8-.2,1.2-.3.4-.1.8-.4,1.2-.6.4-.3.7-.6,1-1.1.3-.5.5-.9.7-1.4.2-.5.2-.9.2-1.4,0-.4-.1-.9-.4-1.2-.2-.4-.5-.7-1-1-.3-.2-.6-.3-.8-.4-.3,0-.6,0-.9,0-.3,0-.6.1-.9.2-.3.1-.7.3-1.1.5-.4.2-.7.3-1.1.5-.3.1-.7.2-1,.3-.3,0-.7.1-1,.1-.3,0-.7,0-1-.2-.3-.1-.7-.3-1.1-.5-.5-.3-.9-.7-1.1-1.2-.3-.5-.4-1-.5-1.5,0-.6,0-1.1.2-1.7.2-.6.5-1.2.9-1.8.3-.5.7-.9,1.1-1.1.4-.3.8-.5,1.3-.7.4-.2.9-.3,1.3-.4.1,0,.3,0,.3,0,0,0,.1.2.2.4,0,.2,0,.3,0,.4,0,.1-.1.2-.3.2-.3,0-.7.2-1,.3-.3.1-.6.3-1,.5-.3.2-.6.6-.9,1-.3.4-.5.8-.6,1.2-.1.4-.2.8-.2,1.2,0,.4.1.7.3,1.1.2.3.4.6.8.9.3.2.6.3.9.4.3,0,.6.1.9,0,.3,0,.6-.1,1-.3.4-.1.8-.3,1.2-.5.5-.3.9-.5,1.4-.6.4-.2.9-.2,1.3-.3.4,0,.8,0,1.2.1.4.1.8.3,1.2.5.6.4,1,.8,1.3,1.3.3.5.5,1.1.5,1.7,0,.6,0,1.3-.2,1.9-.2.6-.5,1.3-.9,1.9Z"/>
      <path id="path2" class="cls-1" d="M17.1,72.9c-.1.1-.2.2-.4.3-.1,0-.3,0-.4-.2l-3.3-5.3c0-.1-.2-.2-.2-.2,0,0-.2,0-.3,0,0,0-.1.2-.1.3,0,.1,0,.3,0,.5,0,.2,0,.5.1.8,0,.2,0,.3,0,.4,0,0-.1.2-.3.2-.2,0-.4,0-.4,0,0,0-.2-.2-.2-.3,0-.4-.2-.7-.2-1.1,0-.3,0-.7,0-1,0-.3.2-.6.5-.9.2-.3.4-.4.6-.5.2,0,.4,0,.6,0,.2,0,.4.2.5.4.2.1.3.3.4.5l.3.6c-.1-.5-.2-.9-.3-1.4,0-.4,0-.8,0-1.2,0-.4.1-.7.2-1,.1-.3.3-.6.5-.8.3-.4.7-.6,1.1-.6.4,0,.7.1,1.1.4.4.3.7.7,1,1.2l2.5,4.1c0,.1,0,.2,0,.4,0,.1,0,.3-.2.4-.1.1-.2.2-.4.3-.1,0-.3,0-.4-.2l-2.7-4.4c-.1-.2-.3-.4-.4-.6-.2-.2-.3-.2-.5-.2-.2,0-.3,0-.5.3-.2.2-.3.6-.4,1,0,.4,0,.9,0,1.5,0,.6.3,1.2.5,1.9.2.7.5,1.3.9,2.1l.8,1.3c0,.1,0,.2,0,.4,0,.1,0,.3-.2.4ZM24.2,64.5c-.3.3-.5.5-.7.5-.2,0-.5,0-.7-.1-.2-.1-.4-.3-.6-.5-.2-.2-.3-.5-.5-.7l-1.6-2.6c-.1-.2-.3-.4-.4-.6-.2-.2-.3-.2-.5-.2-.2,0-.3,0-.5.3-.2.2-.3.6-.4,1,0,.4,0,1,0,1.6.1.6.3,1.2.5,1.9.2.7.5,1.4.9,2.1l-.4.4c-.5-.9-1-1.8-1.3-2.6-.3-.8-.6-1.6-.7-2.3-.1-.7-.1-1.3,0-1.9,0-.6.3-1,.6-1.4.3-.4.7-.6,1.1-.6.4,0,.7.1,1.1.4.3.3.7.7,1,1.2l1.7,2.9c0,.1.2.3.3.3,0,0,.1.1.2.1,0,0,.1,0,.2-.1,0,0,.1-.2.1-.3,0-.1,0-.3,0-.4,0-.2,0-.3,0-.5,0-.1,0-.2,0-.3,0,0,.1-.1.3-.2.2,0,.3,0,.4,0,0,0,.2.1.2.2,0,.2.1.4.2.7,0,.3,0,.6,0,.9,0,.3-.2.6-.4.9Z"/>
      <path id="path3" class="cls-1" d="M28.6,59.9c-.3.3-.6.4-.9.5-.3,0-.7,0-1-.1-.4-.1-.7-.4-1-.7s-.6-.7-.9-1.2c-.3-.5-.5-1-.6-1.5-.2-.6-.2-1.1-.2-1.7,0-.6,0-1.1.3-1.7.2-.5.5-1,1-1.5.2-.2.5-.4.8-.6.3-.2.6-.3.9-.4h0c0-.2,0-.3,0-.4,0,0,.1-.2.3-.3.2-.2.4-.3.5-.3.1,0,.2,0,.3.3l2.5,5.3c0,.1.1.3.2.4,0,0,.1.1.2.1,0,0,.1,0,.2,0,0,0,.1-.2.2-.3,0-.1,0-.3,0-.4,0-.2,0-.3,0-.5,0-.1,0-.2,0-.3,0,0,.2-.1.3-.2.2,0,.3,0,.4,0,0,0,.2.1.2.2,0,.2,0,.4,0,.7,0,.3,0,.6-.1.9,0,.3-.3.6-.5.8-.3.2-.5.4-.7.4-.2,0-.4,0-.6-.1-.2-.1-.4-.3-.5-.5-.2-.2-.3-.4-.4-.6,0,0,0,0,0,0,0,0,0,0,0,0,0,.7.1,1.3,0,1.8,0,.5-.1,1-.3,1.3-.1.4-.3.6-.5.9ZM26.5,58.5c.2.2.4.3.6.4.2,0,.4.1.5.1.2,0,.3-.1.4-.2.2-.2.4-.6.5-1.1,0-.5,0-1.2,0-1.9-.1-.8-.3-1.6-.6-2.6l-.5-1.1c-.3.1-.6.3-.8.4-.2.2-.4.3-.6.5-.3.3-.5.7-.7,1.1-.1.4-.2.8-.2,1.2,0,.4.1.8.2,1.2.1.4.3.8.5,1.1.2.3.4.6.6.8Z"/>
      <path id="path4" class="cls-1" d="M35.6,53.3c-.4.4-.9.5-1.3.2-.4-.2-.8-.8-1.1-1.6l-5.1-12c0-.2-.1-.3,0-.5,0-.1.1-.2.3-.4.2-.2.4-.3.5-.3.1,0,.2.1.3.3l5.4,12.6c0,.2.2.4.3.4.1,0,.2,0,.3,0,0,0,.1-.2.2-.3,0-.1,0-.3,0-.4,0-.2,0-.3,0-.5,0-.1,0-.2,0-.3,0,0,.2-.1.3-.1.2,0,.3,0,.4,0,0,0,.1.1.2.3,0,.3,0,.6,0,.9,0,.3-.1.6-.2.8-.1.2-.3.5-.5.6Z"/>
      <path id="path5" class="cls-1" d="M39.3,50.1c-.4.4-.9.4-1.3.2-.4-.2-.8-.8-1.1-1.6l-4.7-12.2c0-.2,0-.4,0-.5,0-.1.1-.2.3-.3.2-.2.4-.3.5-.3.1,0,.2.1.3.3l5,12.8c0,.2.2.4.3.5,0,0,.2,0,.3,0,0,0,.1-.2.2-.3,0-.1,0-.3,0-.4,0-.2,0-.3,0-.5,0-.1,0-.2,0-.3,0,0,.2-.1.3-.1.2,0,.3,0,.4,0,0,0,.1.1.2.3,0,.3,0,.6,0,1,0,.3-.1.6-.3.8-.1.2-.3.4-.5.6Z"/>
      <path id="path6" class="cls-1" d="M46.9,43.9c-.4.3-.6.2-.7,0l-4.1-14.3c0-.3,0-.5.4-.8l2.5-1.7c.6-.4,1.2-.7,1.8-.9.6-.1,1.1-.1,1.6,0,.5.2.9.5,1.3,1,.3.5.5,1,.6,1.6,0,.6,0,1.1-.2,1.7-.2.6-.4,1.1-.8,1.6-.3.5-.8.9-1.2,1.3h0c.4-.1.7-.3,1.1-.4s.8-.1,1.2,0c.4,0,.7.1,1.1.3.3.2.6.4.8.8.4.6.6,1.1.8,1.7.1.6.1,1.2,0,1.7-.1.6-.3,1.1-.6,1.6-.3.5-.7,1-1.2,1.5-.5.5-1,.9-1.7,1.4l-2.8,1.9ZM47.1,42.3l2-1.3c.6-.4,1.1-.8,1.5-1.3.4-.5.8-1,1-1.5.2-.5.3-1.1.3-1.6,0-.6-.2-1.1-.6-1.7-.2-.3-.4-.5-.7-.6-.3-.2-.6-.2-.9-.3-.4,0-.7,0-1.1.1-.4.1-.8.3-1.2.6l-2,1.4,1.8,6.2ZM45,34.9l1.8-1.2c.5-.3.9-.7,1.2-1.1.4-.4.6-.9.8-1.4.2-.5.3-1,.3-1.5,0-.5-.2-1-.5-1.4-.2-.4-.5-.6-.8-.7-.3-.1-.6-.1-1.1,0-.4.1-.9.3-1.4.7l-2,1.4,1.5,5.3Z"/>
      <path id="path7" class="cls-1" d="M58.9,36.4c-.3.2-.6.3-1,.2-.3,0-.6-.2-.9-.4-.3-.2-.6-.5-.8-.9-.2-.4-.4-.9-.6-1.4-.1-.5-.2-1.1-.2-1.6,0-.6,0-1.1.2-1.7.1-.6.4-1.1.7-1.6.3-.5.8-.9,1.3-1.2.3-.1.6-.3.9-.3.3,0,.6-.1,1-.2h0c0-.2,0-.4,0-.4,0,0,.2-.2.3-.3.3-.2.5-.2.6-.2.1,0,.2.2.2.4l1.1,5.7c0,.2,0,.3.1.4,0,0,0,.1.2.2,0,0,.1,0,.2,0,0,0,.2-.1.2-.3,0-.1.1-.3.1-.4,0-.2,0-.3.1-.5,0-.1,0-.2.1-.3,0,0,.2,0,.3,0,.2,0,.3,0,.4.1,0,0,.1.2.1.3,0,.2,0,.4,0,.7,0,.3-.2.6-.3.8-.2.3-.4.5-.7.7-.3.2-.6.2-.8.2-.2,0-.4-.1-.6-.3-.2-.2-.3-.4-.4-.6,0-.2-.2-.5-.2-.7,0,0,0,0,0,0,0,0,0,0,0,0,0,.7-.2,1.2-.4,1.7-.2.5-.4.9-.6,1.2-.2.3-.5.5-.7.7ZM57.2,34.4c.1.2.3.4.4.6.2.1.3.2.5.2.2,0,.3,0,.5-.1.3-.2.5-.5.8-1,.2-.5.3-1.1.4-1.9,0-.8.1-1.7,0-2.7l-.2-1.2c-.3,0-.6.1-.9.2-.3,0-.5.2-.7.3-.4.2-.7.5-.9.9-.2.3-.4.7-.5,1.2,0,.4-.1.8,0,1.3,0,.4.1.8.2,1.2.1.4.2.7.4,1Z"/>
      <path id="path8" class="cls-1" d="M68.2,31.3c-.4.2-.7.3-1,.2-.3,0-.5-.3-.7-.6-.2-.3-.3-.8-.4-1.3l-.6-4.1-1,.5c0,0-.2,0-.3,0,0,0-.1-.2-.2-.4,0-.2,0-.4,0-.5,0-.1.1-.2.2-.3l1.1-.5-.4-3.1c0-.2,0-.4,0-.4,0,0,.2-.2.4-.3.3-.1.5-.2.6-.1.1,0,.2.2.2.4l.4,3,1.7-.8c0,0,.2,0,.3,0,0,0,.1.2.2.4,0,.2,0,.4,0,.5,0,.1-.1.2-.2.3l-1.7.9.7,4.6c0,.4.1.6.3.7.1.1.3.1.4,0,.2-.1.4-.3.6-.6.1-.3.3-.6.3-1,0-.1,0-.2.2-.3,0,0,.2,0,.4,0,.2,0,.3,0,.4.1,0,0,0,.2,0,.3,0,.2,0,.5-.2.9,0,.3-.3.7-.5,1-.2.3-.5.6-.9.8Z"/>
      <path id="path9" class="cls-1" d="M75.2,28c-.6.3-1.1.3-1.6.3-.5,0-.9-.3-1.2-.6-.3-.3-.6-.7-.8-1.2-.2-.5-.4-1.1-.4-1.7,0-.6,0-1.3.1-1.9.1-.6.4-1.2.8-1.8.4-.5.9-.9,1.6-1.3.5-.2,1-.3,1.4-.3.4,0,.9.1,1.3.3.2.1.3.2.3.4,0,.1,0,.3,0,.4,0,.1-.2.3-.3.3-.1,0-.3,0-.4,0-.3-.1-.5-.2-.8-.2-.3,0-.6.1-1,.3-.5.2-.8.5-1.1.9-.3.4-.4.8-.5,1.3,0,.5,0,1,0,1.4,0,.5.2.9.3,1.3.1.3.3.6.5.7.2.2.4.3.7.3.3,0,.6,0,.9-.1.3-.1.6-.3.8-.5.2-.2.4-.5.5-.8.1-.3.3-.6.4-.9,0-.2.2-.3.3-.3.1,0,.3,0,.4,0,.2,0,.3.1.3.3,0,.1,0,.2,0,.4-.1.6-.4,1-.6,1.4-.3.4-.5.7-.8,1-.3.3-.6.5-1,.6Z"/>
      <path id="path10" class="cls-1" d="M86.3,23.6c-.4.1-.7.2-.9,0-.2,0-.4-.2-.5-.5-.1-.2-.2-.5-.3-.8,0-.3,0-.6,0-.9v-3c0-.4-.1-.8-.3-1-.2-.2-.4-.3-.8-.2-.3.1-.6.3-.9.7-.3.4-.5.8-.7,1.4-.2.5-.4,1.2-.5,1.9-.1.7-.2,1.4-.3,2.2v1.5c0,.1,0,.2,0,.3,0,0-.2.2-.4.3-.2,0-.3,0-.5,0-.1,0-.2-.1-.2-.3l-.5-15.2c0-.2,0-.4,0-.4,0,0,.2-.2.4-.2.3-.1.5-.1.6,0,.1,0,.2.2.2.4l.3,9.9c.1-.5.3-.9.4-1.3.2-.4.4-.8.6-1.1.2-.3.4-.6.7-.8.3-.2.5-.4.8-.5.5-.2.9-.2,1.2,0,.3.1.6.4.8.8.2.4.3,1,.3,1.6v3.3c0,.2,0,.3.1.4,0,0,0,.2.1.2,0,0,.1,0,.2,0,.1,0,.2-.1.3-.2,0-.1.2-.2.2-.4,0-.2.1-.3.2-.5,0-.1,0-.2.2-.3,0,0,.2,0,.3,0,.2,0,.3.1.4.2,0,0,0,.2,0,.3,0,.2-.1.4-.2.7-.1.3-.3.5-.5.8-.2.2-.5.4-.8.5Z"/>
      <path id="path11" class="cls-1" d="M94.7,20.8c-.4.1-.6,0-.6-.3l1.2-15.3c0-.1,0-.3.2-.4.1,0,.3-.2.5-.2.4-.1.6,0,.6.3l-.5,6.7,7.6-1.8.5-6.7c0-.1,0-.3.2-.4.1,0,.3-.2.5-.2.4-.1.6,0,.6.3l-1.2,15.3c0,.1,0,.3-.2.4-.1,0-.3.2-.5.2-.4.1-.6,0-.6-.3l.6-7.4-7.6,1.8-.6,7.4c0,.1,0,.3-.2.4-.1,0-.3.2-.5.2Z"/>
      <path id="path12" class="cls-1" d="M111,17.3c-.4,0-.7,0-1-.1-.3-.1-.5-.4-.7-.7-.2-.3-.3-.7-.4-1.2,0-.5,0-.9,0-1.5,0-.5.2-1.1.4-1.6.2-.5.5-1,.8-1.5.3-.5.7-.9,1.2-1.2.5-.3,1-.5,1.7-.6.3,0,.6,0,.9,0,.3,0,.6.1,1,.2h0c0-.2,0-.3.2-.4,0,0,.2,0,.4-.1.3,0,.5,0,.6,0,.1,0,.1.2,0,.4l-1,5.7c0,.2,0,.3,0,.4,0,.1,0,.2,0,.2,0,0,.1,0,.2,0,.1,0,.2,0,.3-.2,0,0,.2-.2.3-.3.1-.1.2-.3.3-.5,0-.1.1-.2.2-.2,0,0,.2,0,.3,0,.2,0,.3.2.3.3,0,0,0,.2,0,.3,0,.2-.2.4-.3.6-.2.2-.4.5-.6.7-.3.2-.6.3-.9.4-.3,0-.6,0-.8,0-.2-.1-.3-.3-.4-.5,0-.2-.1-.4-.1-.7,0-.3,0-.5,0-.7,0,0,0,0,0,0,0,0,0,0,0,0-.3.6-.6,1.1-1,1.5-.3.4-.7.7-1,.9-.3.2-.6.3-.9.4ZM110.1,14.9c0,.3.1.5.2.7,0,.2.2.3.4.4.2,0,.3.1.5,0,.3,0,.7-.3,1.1-.6.4-.4.7-.9,1.1-1.6.4-.7.7-1.5,1-2.5l.2-1.2c-.3,0-.6-.1-.9-.1-.3,0-.5,0-.8,0-.4,0-.8.2-1.2.5-.3.2-.6.5-.9.9-.2.4-.4.7-.5,1.2-.1.4-.2.8-.2,1.2,0,.4,0,.7,0,1Z"/>
      <path id="path13" class="cls-1" d="M120.1,16c-.2,0-.3,0-.5,0-.1,0-.2-.2-.1-.4l1.5-6c0-.1,0-.2,0-.3,0,0-.1-.1-.2-.1-.1,0-.2,0-.3.1-.1,0-.2.2-.4.4-.1.2-.3.4-.5.7-.1.1-.2.2-.3.3,0,0-.2,0-.4,0-.2,0-.3-.2-.3-.3,0-.1,0-.3,0-.4.2-.3.4-.6.6-.9.2-.3.5-.5.8-.6.3-.2.6-.3,1-.3.3,0,.6,0,.8.1.2,0,.3.2.4.4,0,.2.1.4.1.6,0,.2,0,.4,0,.6l-.2.7c.3-.4.5-.8.8-1.2.3-.4.6-.6.9-.9.3-.3.6-.4.9-.6.3-.1.6-.2,1-.2.5,0,.9,0,1.2.3.3.2.4.5.5,1,0,.4,0,1-.2,1.6l-.8,3.2c0,.2,0,.3,0,.4,0,.1,0,.2,0,.2,0,0,.1,0,.2,0,.1,0,.2,0,.3-.1.1,0,.2-.2.3-.3.1-.1.2-.3.3-.4,0-.1.1-.2.2-.2,0,0,.2,0,.3,0,.2,0,.3.2.3.3,0,0,0,.2,0,.3,0,.2-.2.4-.4.6-.2.2-.4.4-.7.6-.3.2-.6.3-.9.3-.4,0-.7,0-.9-.2-.2-.1-.3-.3-.4-.6,0-.3,0-.5,0-.8,0-.3,0-.6.2-.9l.8-2.9c0-.3.1-.5.1-.7,0-.2,0-.4-.2-.5-.1-.1-.3-.2-.6-.2-.3,0-.7.2-1,.4-.4.3-.7.6-1.1,1.1-.3.5-.7,1-1,1.6-.3.6-.6,1.3-.9,2.1l-.4,1.5c0,.1,0,.2-.2.3,0,0-.3.1-.5.1Z"/>
      <path id="path14" class="cls-1" d="M133,15.4c-.4,0-.7,0-1-.3-.3-.2-.5-.5-.6-.8-.1-.4-.2-.8-.2-1.2,0-.5,0-.9.2-1.5.1-.5.4-1,.6-1.5.3-.5.6-1,1-1.4.4-.4.9-.7,1.4-1,.5-.2,1.1-.4,1.8-.4.3,0,.6,0,1,.1.3,0,.6.2.9.4l2.5-7.4c0-.2.1-.3.2-.4.1,0,.3,0,.5,0,.3,0,.5,0,.6.2,0,0,0,.2,0,.4l-4.4,13c0,.2,0,.4,0,.5,0,.1.1.2.3.2.1,0,.2,0,.3,0,.1,0,.2-.2.3-.3.1-.1.2-.3.4-.4,0,0,.2-.2.2-.2,0,0,.2,0,.3.1.2.1.2.2.3.3,0,.1,0,.2,0,.3-.2.3-.4.5-.6.7-.2.2-.4.4-.7.5-.3.1-.5.2-.8.2-.4,0-.6,0-.8-.2-.2-.2-.3-.4-.4-.7,0-.3,0-.7.1-1.2,0,0,0,0,0,0,0,0,0,0,0,0-.4.5-.8,1-1.2,1.3-.4.3-.8.6-1.1.8-.4.2-.7.2-1,.2ZM132.5,12.9c0,.3,0,.5,0,.7,0,.2.2.3.3.5.1.1.3.2.5.2.4,0,.7-.2,1.2-.5.4-.3.9-.8,1.3-1.4.5-.6.9-1.4,1.4-2.2l.4-1.2c-.3-.1-.6-.2-.9-.3-.3,0-.5,0-.8,0-.4,0-.9,0-1.2.3-.4.2-.7.4-1,.8-.3.3-.5.7-.7,1.1-.2.4-.3.8-.4,1.2,0,.4-.1.7-.1,1Z"/>
      <path id="path15" class="cls-1" d="M144.4,15.8c-.6,0-1.1-.2-1.5-.5-.4-.3-.6-.6-.8-1.1-.2-.4-.2-.9-.2-1.4,0-.6.2-1.1.4-1.7.2-.6.6-1.2,1-1.7.4-.5.9-.9,1.5-1.2s1.3-.4,2-.3c.6,0,1,.2,1.4.4.4.2.7.5,1,.9.1.2.2.3.1.5,0,.1-.1.2-.3.3-.1,0-.3.1-.4.2-.1,0-.3,0-.4-.2-.2-.2-.4-.4-.7-.5-.3-.1-.6-.2-1-.2-.5,0-1,0-1.4.3-.4.2-.8.5-1,.9-.3.4-.5.8-.7,1.3-.2.4-.3.9-.3,1.3,0,.3,0,.6,0,.9.1.3.3.5.5.6.2.1.5.2.8.3.3,0,.6,0,.9-.1.3-.1.6-.3.8-.5.3-.2.5-.4.8-.6.2-.1.3-.2.4-.1.1,0,.3.1.4.2.1.1.2.3.2.4,0,.1,0,.3-.2.4-.4.4-.8.8-1.2,1-.4.2-.8.4-1.2.5-.4,0-.8.1-1.1,0Z"/>
      <path id="path16" class="cls-1" d="M150.6,16.2c-.2,0-.3,0-.4-.2-.1,0-.1-.2,0-.4l2.7-5.6c0-.1,0-.2,0-.3,0,0-.1-.2-.2-.2-.1,0-.2,0-.4,0-.1,0-.3.1-.5.3-.2.1-.4.3-.6.6-.1.1-.3.2-.4.2,0,0-.2,0-.4-.1-.2-.1-.2-.3-.2-.4,0-.1,0-.2.2-.3.3-.3.5-.5.8-.7.3-.2.6-.4.9-.5.3-.1.6-.1,1,0,.3,0,.6.1.8.3.2.1.3.3.3.5,0,.2,0,.4,0,.6,0,.2,0,.4-.2.6l-.3.7c.3-.4.6-.7.9-1,.3-.3.6-.5.9-.7.3-.2.6-.3.8-.4.2,0,.5-.1.7,0,.1,0,.2,0,.3.1,0,0,0,.2,0,.5,0,.2,0,.5,0,.6,0,.2,0,.3,0,.4,0,0,.1.1.3.2.2,0,.5,0,.8,0,.3-.1.7-.3,1.2-.5.1,0,.2,0,.3,0,.1,0,.2.1.2.3,0,.1,0,.2,0,.4,0,.1,0,.2-.2.3-.5.3-.9.5-1.4.6-.4.1-.8.1-1.2,0-.2,0-.4,0-.6-.2-.2-.1-.3-.3-.4-.5-.1-.2-.1-.5,0-.9-.2,0-.5.3-.9.5-.3.2-.7.5-1,.9-.4.4-.7.8-1.1,1.3-.4.5-.7,1-1.1,1.6l-.7,1.4c0,.1-.1.2-.3.3-.1,0-.3,0-.5,0Z"/>
      <path id="path17" class="cls-1" d="M161.9,18c-.4,0-.7-.2-.9-.5-.2-.2-.4-.5-.5-.9,0-.4,0-.8,0-1.2,0-.5.3-.9.5-1.4.2-.5.5-.9.9-1.4.4-.4.8-.8,1.3-1.1.5-.3,1-.6,1.6-.7.6-.1,1.2-.1,1.8,0,.3,0,.6.2.9.3.3.1.6.3.8.5h0c0-.2.2-.3.3-.3.1,0,.2,0,.4,0,.3,0,.5.2.5.3,0,.1,0,.3,0,.4l-2.9,5c0,.1-.1.3-.2.4,0,0,0,.2,0,.2,0,0,0,0,.2.1.1,0,.2,0,.3,0,.1,0,.2-.1.4-.2.1,0,.3-.2.4-.3,0,0,.2-.1.3-.1,0,0,.2,0,.3.2.1.1.2.2.2.3,0,.1,0,.2,0,.3-.1.1-.3.3-.5.5-.2.2-.5.3-.8.4-.3,0-.6.1-1,0-.3,0-.6-.2-.7-.4-.1-.2-.2-.4-.2-.6,0-.2,0-.5.1-.7,0-.2.2-.5.3-.7,0,0,0,0,0,0,0,0,0,0,0,0-.5.4-1,.8-1.4,1.1-.4.3-.9.4-1.2.5-.4,0-.7,0-1,0ZM162,15.5c0,.3,0,.5,0,.7,0,.2,0,.4.2.5.1.1.3.2.4.2.3,0,.7,0,1.2-.2.5-.2,1-.6,1.6-1.1.6-.5,1.2-1.2,1.8-1.9l.6-1c-.3-.2-.5-.3-.8-.4-.3-.1-.5-.2-.7-.2-.4,0-.9,0-1.3,0-.4.1-.8.3-1.1.6-.3.3-.6.6-.9.9-.3.3-.5.7-.7,1.1-.2.4-.3.7-.3,1Z"/>
      <path id="path18" class="cls-1" d="M166.2,26.5c-.2,0-.3-.1-.4-.2-.1-.1-.1-.2,0-.4l11.2-17.1c.4-.6.8-1.1,1.2-1.5.4-.4.8-.6,1.1-.7.4-.1.8-.1,1.2,0,.5.1.8.4,1,.9.2.4.2.9,0,1.5-.1.5-.4,1-.7,1.5-.3.5-.8,1-1.3,1.6-.5.5-1,1.1-1.6,1.6-.6.5-1.2,1-1.9,1.5-.7.5-1.4.9-2.1,1.4-.7.4-1.4.8-2.1,1.2-.7.3-1.3.6-2,.8-.6.2-1.2.4-1.7.4-.5,0-1,0-1.3,0-.2,0-.3-.1-.3-.3,0-.1,0-.2,0-.4,0-.1.2-.2.3-.3.1,0,.3-.1.5,0,.3,0,.6,0,1.1,0,.4,0,.9-.2,1.5-.4.5-.2,1.1-.5,1.7-.8.6-.3,1.2-.7,1.8-1.1.6-.4,1.2-.8,1.8-1.3.6-.5,1.2-.9,1.7-1.4.5-.5,1-1,1.5-1.5.4-.5.8-1,1.1-1.5.3-.5.5-1,.6-1.4,0-.2,0-.4,0-.6,0-.2-.1-.3-.3-.3-.1,0-.3,0-.5,0-.2,0-.4.2-.6.5-.2.3-.5.6-.8,1.1l-11.1,17c0,.1-.2.2-.3.2-.1,0-.3,0-.5,0ZM170.6,19.9c-.2,0-.3-.1-.5-.2-.1,0-.3-.1-.4-.2,0,0-.1-.2-.1-.3,0-.1,0-.3.1-.4,0-.1.2-.2.4-.3.1,0,.3,0,.4,0,0,0,.1,0,.2,0,0,0,.1,0,.2,0,0,0,.2,0,.3,0,.3,0,.7.1,1,0,.4,0,.8-.2,1.2-.3.4-.2.9-.4,1.4-.7.1,0,.2,0,.4,0,.1,0,.2.1.3.2,0,.1.1.2,0,.4,0,.1,0,.2-.2.3-.6.3-1.1.6-1.7.8-.6.2-1.1.3-1.6.4-.5,0-1,0-1.3,0Z"/>
      <path id="path19" class="cls-1" d="M178.5,22.1c-.4-.1-.7-.3-.9-.6-.2-.3-.2-.6,0-1,0-.4.3-.8.6-1.2l2.4-3.4-1.1-.4c-.1,0-.2-.1-.2-.2,0-.1,0-.2.2-.4.1-.2.2-.3.4-.4.1,0,.2,0,.3,0l1.1.4,1.8-2.5c.1-.2.2-.3.3-.3.1,0,.3,0,.5,0,.3,0,.5.2.5.3,0,.1,0,.3-.1.4l-1.8,2.4,1.8.6c.1,0,.2.1.2.2,0,.1,0,.2-.2.4-.1.2-.2.3-.4.4-.1,0-.2,0-.3,0l-1.9-.6-2.7,3.8c-.2.3-.3.5-.3.7,0,.2,0,.3.3.3.2,0,.5,0,.8,0,.3-.1.6-.3,1-.5.1,0,.2,0,.3,0,.1,0,.2,0,.3.2.1.1.2.2.2.3,0,0,0,.2-.1.2-.2.2-.4.3-.7.5-.3.2-.7.3-1,.4-.4,0-.8,0-1.2,0Z"/>
      <path id="path20" class="cls-1" d="M185.8,24.7c-.6-.2-1-.5-1.2-.9-.3-.4-.4-.8-.5-1.3,0-.5,0-.9.2-1.4.2-.5.5-1.1.9-1.6.4-.5.9-.9,1.5-1.3.6-.3,1.2-.6,1.8-.7.7-.1,1.4,0,2.1.2.4.2.8.4,1,.6.3.2.4.5.5.8,0,.3,0,.6,0,1-.1.4-.4.7-.7.9-.3.2-.7.4-1.2.5-.5.1-1,.1-1.6.1-.6,0-1.1,0-1.7-.2-.6,0-1.2-.2-1.7-.4l.5-.9c.4,0,.8.2,1.2.3.4,0,.9.1,1.3.2.4,0,.8,0,1.2,0,.4,0,.7-.1.9-.3.3-.1.4-.3.5-.6,0-.2,0-.4,0-.6-.1-.2-.3-.3-.6-.4-.5-.2-1-.2-1.4-.1-.5,0-.9.3-1.3.6-.4.3-.7.6-1,1-.3.4-.5.8-.7,1.2-.1.3-.2.6-.2.9,0,.3.1.5.3.7.2.2.4.4.7.5.3.1.6.2.9.1.3,0,.6,0,.9-.2.3-.1.6-.2.9-.4.2,0,.3,0,.4,0,.1,0,.2.2.3.3,0,.1,0,.3,0,.4,0,.1-.1.2-.3.3-.5.3-.9.5-1.4.6-.4.1-.8.1-1.2.1-.4,0-.7,0-1.1-.2Z"/>
      <path id="path21" class="cls-1" d="M193.4,27.6c-.3-.2-.6-.4-.8-.6-.2-.3-.3-.6-.2-1,0-.4.1-.8.3-1.2.2-.4.4-.8.8-1.3.3-.4.7-.8,1.2-1.1.5-.4,1-.6,1.5-.8.5-.2,1.1-.3,1.7-.4.6,0,1.2.1,1.8.4.3.1.6.3.8.5.3.2.5.4.7.7l5.3-5.8c.1-.2.3-.2.4-.3.1,0,.3,0,.4.1.3.1.4.3.5.4,0,.1,0,.3-.2.4l-9.2,10.1c-.2.2-.2.3-.3.5,0,.1,0,.2.2.3.1,0,.2,0,.3,0,.1,0,.3,0,.4-.1.1,0,.3-.1.5-.2.1,0,.2,0,.3,0,0,0,.2,0,.3.2.1.2.1.3.1.4,0,.1,0,.2-.2.3-.3.2-.6.3-.9.4-.3.1-.6.2-.8.1-.3,0-.5,0-.8-.2-.3-.1-.5-.3-.7-.6s-.1-.5,0-.8c0-.3.3-.7.6-1.1,0,0,0,0,0,0,0,0,0,0,0,0-.6.3-1.1.6-1.6.7-.5.2-.9.2-1.4.2-.4,0-.8,0-1-.2ZM194,25.2c-.1.2-.2.5-.2.7,0,.2,0,.4,0,.5,0,.1.2.3.4.3.3.1.7.2,1.2,0,.5-.1,1.1-.4,1.8-.7.7-.4,1.4-.9,2.2-1.5l.8-.9c-.2-.3-.5-.5-.7-.6-.2-.2-.5-.3-.7-.4-.4-.2-.8-.3-1.2-.2-.4,0-.8.1-1.2.3-.4.2-.7.4-1.1.7-.3.3-.6.6-.9.9-.2.3-.4.6-.5.9Z"/>
      <path id="path22" class="cls-1" d="M206.5,33.6c-.4-.2-.5-.4-.2-.6l11.2-9.8c.1,0,.2-.1.4-.1.1,0,.3,0,.5.2l2.2,1.3c.8.5,1.5,1,2,1.6.5.6.8,1.2,1,1.8.2.6.2,1.2.2,1.8,0,.6-.3,1.2-.6,1.8-.6,1-1.3,1.9-2.2,2.6-.8.7-1.7,1.3-2.7,1.7-1,.4-2,.7-3,.8-1,0-2.1,0-3.1-.2-1-.2-2-.6-3-1.2l-2.6-1.5ZM208.1,33l1.7,1c.8.5,1.6.8,2.5,1,.9.2,1.8.3,2.6.2.9,0,1.8-.3,2.6-.7.9-.4,1.6-.9,2.4-1.5.7-.6,1.4-1.4,1.9-2.4.3-.5.4-.9.5-1.4,0-.5,0-.9-.2-1.4-.2-.4-.4-.9-.8-1.2-.4-.4-.8-.8-1.4-1.1l-2-1.2-9.8,8.6Z"/>
      <path id="path23" class="cls-1" d="M220.6,42.7c-.5-.3-.8-.7-1-1.2-.2-.4-.2-.9-.1-1.3,0-.5.3-.9.6-1.3.3-.5.8-.9,1.3-1.3.5-.4,1.1-.7,1.7-.9.6-.2,1.3-.3,1.9-.2.7,0,1.3.3,2,.8.4.3.7.6.8.9.2.3.3.6.2.9,0,.3-.1.6-.3.9-.2.3-.6.6-.9.7-.4.1-.8.2-1.3.2-.5,0-1-.1-1.6-.3-.5-.2-1.1-.4-1.6-.6-.5-.2-1.1-.5-1.6-.8l.8-.8c.3.2.7.4,1.1.6.4.2.8.3,1.2.5.4.1.8.2,1.2.3.4,0,.7,0,1,0,.3,0,.5-.2.6-.4.1-.2.2-.4.1-.6,0-.2-.2-.4-.5-.5-.4-.3-.9-.5-1.4-.5-.5,0-.9,0-1.4.2-.5.2-.9.4-1.3.7-.4.3-.7.6-.9,1-.2.3-.3.6-.4.8,0,.3,0,.5,0,.8.1.2.3.4.6.6.3.2.5.3.8.4.3,0,.6,0,.9,0,.3,0,.6,0,1-.2.2,0,.3,0,.4.1.1.1.2.2.2.4,0,.2,0,.3,0,.4,0,.1-.2.2-.4.2-.5.1-1,.2-1.5.2-.4,0-.9,0-1.2-.2-.4-.1-.7-.3-1-.5Z"/>
      <path id="path24" class="cls-1" d="M226.1,46.7c-.5-.4-.6-.8-.5-1.2.1-.5.6-.9,1.3-1.4l10.8-7.3c.2-.1.3-.2.4-.2.1,0,.2,0,.4.2.2.2.4.3.4.5,0,.1,0,.2-.2.4l-11.4,7.7c-.2.1-.3.3-.4.4,0,.1,0,.2,0,.3,0,0,.2.1.3.1.1,0,.3,0,.4,0,.2,0,.3,0,.5-.1.1,0,.2,0,.3,0,0,0,.1.1.2.3,0,.2,0,.3,0,.4,0,0-.1.2-.2.2-.3.1-.6.2-.9.2-.3,0-.6,0-.8,0-.3,0-.5-.2-.7-.4Z"/>
      <path id="path25" class="cls-1" d="M230.6,50.2c-.5-.4-.6-.8-.5-1.2.2-.4.6-.9,1.4-1.4l4.4-2.7c.2-.1.3-.2.4-.1.1,0,.2,0,.4.2.2.2.4.4.4.5,0,.1,0,.2-.3.4l-4.9,3.1c-.2.1-.3.2-.4.4,0,.1,0,.2,0,.3,0,0,.2.1.3.1.1,0,.3,0,.4,0,.2,0,.3,0,.5,0,.1,0,.2,0,.3,0,0,0,.1.1.2.3,0,.2,0,.3,0,.4,0,0-.1.2-.2.2-.3.1-.6.2-.9.2-.3,0-.6,0-.8,0-.3,0-.5-.2-.7-.4ZM238.9,43.8c-.2-.1-.2-.3-.3-.5,0-.2,0-.4.2-.6.2-.2.4-.3.7-.4.3,0,.6,0,.9.3.2.1.3.3.3.5,0,.2,0,.4-.2.6-.2.2-.4.3-.7.4-.3,0-.6,0-.9-.3Z"/>
      <path id="path26" class="cls-1" d="M229.1,58.8c-.4-.3-.6-.7-.8-1.2-.2-.4-.3-.9-.3-1.4,0-.3,0-.5.1-.6,0-.1.3-.2.5-.2.2,0,.4,0,.4.2,0,.1.1.3.1.5,0,.3,0,.7.2,1,.1.3.3.6.6.8.3.3.6.5,1,.6.3,0,.7,0,1.1,0,.4-.1.9-.3,1.5-.7l5.7-3.1c-.7.1-1.3.2-1.8.2-.5,0-1,0-1.3-.2-.4-.1-.7-.3-.9-.5-.3-.3-.4-.5-.5-.9,0-.3,0-.7,0-1,.1-.4.4-.7.7-1,.3-.3.7-.7,1.1-.9.5-.3,1-.5,1.5-.7.5-.2,1.1-.3,1.7-.3.6,0,1.1,0,1.7.2.6.2,1.1.5,1.5.9.2.2.4.4.6.7.2.3.3.6.5.9h0c.1-.1.3-.1.4,0,.1,0,.2.1.4.2.2.2.3.4.3.5,0,.1,0,.2-.3.3l-10.4,5.7c-.9.5-1.6.8-2.3,1-.6.1-1.2.1-1.6,0-.5-.2-1-.5-1.4-.9ZM236.3,53.6c.3.2.6.4,1.2.4.5,0,1.2,0,1.9-.1.8-.1,1.6-.4,2.5-.7l1.1-.6c-.1-.3-.3-.6-.5-.8-.2-.2-.3-.4-.5-.6-.3-.3-.7-.5-1.1-.6-.4-.1-.8-.1-1.2,0-.4,0-.8.1-1.2.3-.4.2-.8.4-1.1.6-.3.2-.6.4-.8.7-.2.2-.3.4-.4.6,0,.2-.1.4,0,.5,0,.2.1.3.2.4Z"/>
      <path id="path27" class="cls-1" d="M245.8,64.7c-.3-.3-.4-.6-.4-.8,0-.2,0-.5.2-.7.2-.2.4-.4.6-.6.3-.2.5-.3.8-.4l2.8-1.2c.4-.2.7-.4.8-.6.2-.2.1-.5-.2-.8-.2-.2-.5-.4-1-.5-.4-.1-.9-.2-1.5-.1-.6,0-1.2,0-1.9.2-.7.1-1.4.3-2.2.6l-1.4.6c-.1,0-.2,0-.4,0-.1,0-.3-.1-.4-.3-.1-.1-.2-.3-.2-.4,0-.1,0-.3.2-.4l13.8-6.4c.2,0,.3-.1.4-.1.1,0,.2.1.4.3.2.2.3.4.3.5,0,.1-.1.2-.3.3l-9,4.2c.5,0,1-.1,1.4-.1.4,0,.9,0,1.2.1.4,0,.7.2,1,.3.3.2.6.3.8.6.3.4.5.7.5,1.1,0,.3-.1.7-.5,1-.3.3-.8.6-1.4.9l-3,1.4c-.2,0-.3.1-.4.2,0,0-.1.1-.1.2,0,0,0,.1,0,.2,0,0,.2.1.3.2.1,0,.3,0,.5,0,.2,0,.3,0,.5,0,.1,0,.2,0,.3,0,0,0,.1.2.1.3,0,.2,0,.3,0,.4,0,0-.1.2-.3.2-.2,0-.4,0-.7,0-.3,0-.6,0-.9-.1-.3,0-.6-.3-.8-.5Z"/>
      <path id="path28" class="cls-1" d="M249.7,69.2c-.3-.3-.4-.7-.4-1,0-.3.2-.6.4-.9.3-.3.7-.5,1.2-.7l3.9-1.5-.7-.9c0,0,0-.2,0-.3,0,0,.2-.2.4-.3.2,0,.4-.1.5-.1.1,0,.2,0,.3.1l.8.9,2.9-1.1c.2,0,.3-.1.4,0,.1,0,.2.1.4.3.2.2.3.4.3.5,0,.1-.1.2-.3.3l-2.8,1.1,1.2,1.5c0,0,0,.2,0,.3,0,0-.2.2-.4.3-.2,0-.3.1-.5.1-.1,0-.2,0-.3-.1l-1.2-1.5-4.3,1.7c-.3.1-.5.3-.6.4,0,.1,0,.3,0,.4.2.2.4.3.7.4.3,0,.7.1,1.1.1.1,0,.2,0,.3,0,0,0,.1.2.1.4,0,.2,0,.3,0,.4,0,0-.1.1-.2.1-.2,0-.5,0-.9,0-.4,0-.7-.1-1.1-.3-.4-.1-.7-.4-1-.7Z"/>
      <path id="path29" class="cls-1" d="M253.9,74.6c-.3-.4-.5-.7-.6-1.1-.1-.4-.2-.8-.2-1.1,0-.4,0-.7.2-1,0-.1.1-.2.2-.3,0,0,.2,0,.4,0,.2,0,.3.1.4.2,0,0,.1.2,0,.3-.1.4-.1.8,0,1.2,0,.4.2.8.5,1.2.2.3.4.5.7.7.2.1.4.2.7.2.2,0,.4,0,.7-.2.2-.1.3-.3.4-.6,0-.2,0-.5,0-.7,0-.3,0-.5,0-.8,0-.3,0-.6,0-.9,0-.3,0-.6.2-.8.1-.3.3-.5.6-.7.3-.2.6-.4,1-.4.4,0,.8,0,1.2.2.4.2.8.5,1.2,1,.3.4.5.7.6,1.1.1.4.2.7.1,1,0,.3,0,.6-.1.8,0,.1-.1.2-.2.3,0,0-.2,0-.4,0-.1,0-.3-.1-.3-.2,0,0,0-.2,0-.3,0-.3,0-.7,0-1,0-.3-.2-.7-.5-1-.3-.4-.6-.6-.8-.6-.3,0-.5,0-.8.2-.2.1-.3.3-.4.5,0,.2,0,.5,0,.7,0,.3,0,.6,0,.8,0,.3,0,.6,0,.9,0,.3,0,.6-.2.8-.1.3-.3.5-.6.7-.5.3-.9.5-1.4.5-.4,0-.9-.1-1.2-.4-.4-.3-.8-.6-1.1-1.1Z"/>
    </g>
  </g>
</svg>