<svg width="200" height="125" viewBox="0 0 200 125" fill="none" xmlns="http://www.w3.org/2000/svg">
<path d="M37.8233 56.1935C36.2791 56.1935 34.8452 55.9792 33.5217 55.5508C32.1981 55.1224 30.9981 54.5359 29.9127 53.8015C28.8274 53.062 27.8568 52.2408 26.992 51.3279C26.1317 50.4201 25.3729 49.4817 24.7199 48.5228C24.4508 48.1097 24.4023 47.7221 24.5655 47.3651C24.7287 47.003 24.9582 46.6511 25.2582 46.3094C25.6729 45.932 26.0435 45.6922 26.37 45.5902C26.6964 45.4882 26.992 45.6259 27.2612 46.0034C28.0333 46.9979 28.9377 47.9363 29.9789 48.8084C31.0201 49.6857 32.1981 50.4048 33.5217 50.9709C34.8452 51.537 36.2923 51.8226 37.8674 51.8226C39.4424 51.8226 41.0219 51.5829 42.4337 51.1035C43.8455 50.6241 45.0765 49.9254 46.1309 49.0175C47.1853 48.1097 48.0016 46.9775 48.5839 45.6157C49.1619 44.2591 49.4531 42.7036 49.4531 40.9542C49.4531 39.822 49.2987 38.7917 48.9854 37.8635C48.6722 36.9353 48.2266 36.0785 47.6486 35.2879C47.0706 34.4974 46.3471 33.7528 45.4868 33.049C44.6264 32.3452 43.6294 31.6311 42.4999 30.912C41.4587 30.2592 40.4792 29.5707 39.5572 28.8516C38.6351 28.1324 37.7968 27.3572 37.038 26.5361C36.2791 25.7099 35.6261 24.8122 35.0791 23.833C34.5276 22.8538 34.0996 21.7675 33.7864 20.5638C33.4731 19.3602 33.3187 18.0239 33.3187 16.5449C33.3187 14.5558 33.654 12.7249 34.3202 11.0571C34.9908 9.3894 35.9482 7.95116 37.1924 6.73222C38.4409 5.51329 39.9322 4.56976 41.6705 3.90164C43.4088 3.23352 45.3632 2.89691 47.5295 2.89691C49.2236 2.89691 50.7722 3.18252 52.184 3.74864C53.5958 4.31475 54.8797 5.06447 56.04 5.9876C57.2004 6.91073 58.2372 7.91036 59.1593 8.97629C59.4857 9.318 59.6137 9.69031 59.5387 10.083C59.4637 10.4808 59.221 10.8837 58.8019 11.2918C58.4754 11.6692 58.1401 11.8936 57.8004 11.9599C57.4607 12.0262 57.1254 11.9242 56.7989 11.6488C56.0268 10.8939 55.2018 10.1799 54.3238 9.5118C53.4458 8.84368 52.4576 8.30307 51.359 7.88996C50.2604 7.47684 48.9678 7.27284 47.4809 7.27284C45.9941 7.27284 44.7235 7.47174 43.4926 7.86445C42.2617 8.25717 41.1984 8.84368 40.3072 9.61381C39.416 10.3839 38.7189 11.3479 38.2115 12.5005C37.7042 13.6531 37.4527 14.9843 37.4527 16.4939C37.4527 17.7281 37.5806 18.8196 37.8321 19.7631C38.0836 20.7066 38.5027 21.5737 39.0807 22.3642C39.6586 23.1547 40.4087 23.9248 41.3307 24.6796C42.2528 25.4345 43.3646 26.225 44.6706 27.0512C46.0956 27.908 47.3574 28.8108 48.4604 29.7543C49.559 30.6978 50.4899 31.728 51.2443 32.845C52.0032 33.9619 52.5723 35.1808 52.9605 36.5018C53.3444 37.8227 53.5385 39.2763 53.5385 40.8522C53.5385 43.1524 53.1502 45.2281 52.3782 47.0846C51.6061 48.941 50.5075 50.5527 49.0825 51.9246C47.6574 53.2966 45.9853 54.3523 44.0705 55.0918C42.1558 55.8313 40.0689 56.1986 37.81 56.1986L37.8233 56.1935Z" fill="#05343B"/>
<path d="M58.7224 53.8983C58.2459 53.8983 57.8091 53.7759 57.4076 53.5362C57.0062 53.2965 56.8959 52.8477 57.0723 52.1949L62.7769 31.8504C62.8961 31.4016 62.8961 31.0344 62.7769 30.7436C62.6578 30.4529 62.4196 30.305 62.0622 30.305C61.7357 30.305 61.396 30.4172 61.0386 30.6416C60.6813 30.866 60.2754 31.2435 59.8121 31.7739C59.3489 32.3043 58.8106 33.0336 58.1841 33.9618C57.8268 34.4107 57.5091 34.681 57.2268 34.7881C56.9444 34.8901 56.5517 34.8034 56.0444 34.5331C55.4796 34.1556 55.2105 33.7527 55.2414 33.3243C55.2723 32.8959 55.3914 32.493 55.5988 32.1156C56.2517 31.0497 56.9267 30.0908 57.6282 29.2289C58.3253 28.3721 59.1062 27.6938 59.9666 27.1939C60.8269 26.6992 61.7931 26.4493 62.8652 26.4493C63.8755 26.4493 64.6476 26.6482 65.1814 27.0409C65.7153 27.4336 66.0815 27.9692 66.2712 28.6373C66.4653 29.3054 66.5403 30.0296 66.4918 30.7997C66.4476 31.5699 66.3638 32.3196 66.2447 33.0387L65.6226 35.1502C66.4521 33.7425 67.2991 32.4981 68.1639 31.4169C69.0242 30.3356 69.911 29.4176 70.8154 28.6628C71.7199 27.908 72.6287 27.3418 73.5332 26.9644C74.4376 26.587 75.3509 26.3983 76.273 26.3983C77.8789 26.3983 79.0436 26.8522 79.7716 27.7652C80.4996 28.6781 80.8613 29.9225 80.8613 31.4985C80.8613 33.0744 80.579 34.8289 80.0143 36.7516L75.5582 52.5672C75.4082 53.016 75.1876 53.3475 74.892 53.5719C74.5964 53.7963 74.1023 53.9085 73.4229 53.9085C72.9464 53.9085 72.5008 53.7861 72.0861 53.5464C71.6713 53.3067 71.5655 52.8579 71.7728 52.2051L76.498 35.4103C76.7671 34.5178 76.9259 33.7017 76.9877 32.9622C77.045 32.2227 76.9215 31.6311 76.6083 31.1874C76.295 30.7436 75.7082 30.5192 74.8479 30.5192C73.9258 30.5192 72.9332 30.9323 71.8611 31.7535C70.7934 32.5797 69.6992 33.7527 68.5874 35.2828C67.4756 36.8128 66.3815 38.6132 65.3138 40.6889C64.2461 42.7698 63.2358 45.0394 62.2828 47.5129L60.8578 52.5621C60.7386 53.0109 60.5225 53.3424 60.2136 53.5668C59.9004 53.7912 59.4062 53.9034 58.7224 53.9034V53.8983ZM91.2514 53.8983C90.0911 53.8983 89.2307 53.6229 88.666 53.0721C88.1013 52.5213 87.7572 51.8123 87.6425 50.9351C87.5233 50.0579 87.5454 49.1246 87.7086 48.13C87.8719 47.1355 88.0881 46.1716 88.3528 45.2434L91.2029 35.4052C91.472 34.5127 91.6308 33.6966 91.6926 32.9571C91.7499 32.2176 91.6264 31.626 91.3132 31.1823C90.9999 30.7385 90.4131 30.5141 89.5528 30.5141C88.5998 30.5141 87.5763 30.9425 86.4777 31.7994C85.3791 32.6562 84.2629 33.8853 83.1335 35.4817C82.004 37.078 80.8966 38.9498 79.8157 41.0969C78.7304 43.2441 77.7157 45.5851 76.7627 48.13H75.0244C76.0656 44.7282 77.1906 41.6937 78.4127 39.011C79.6304 36.3334 80.9364 34.0485 82.3349 32.1615C83.7291 30.2744 85.1585 28.8413 86.6145 27.8621C88.0704 26.8828 89.5396 26.3932 91.0264 26.3932C92.6323 26.3932 93.7882 26.8573 94.503 27.7856C95.2177 28.7138 95.5795 29.9582 95.5927 31.5189C95.6059 33.0795 95.3324 34.8238 94.7677 36.7465L91.5602 47.5639C91.4102 48.1504 91.322 48.6197 91.2911 48.9818C91.2602 49.3439 91.3132 49.6091 91.4455 49.7825C91.5779 49.9559 91.7632 50.0375 92.0014 50.0375C92.3279 50.0375 92.6632 49.9202 93.0029 49.6754C93.3426 49.4357 93.6868 49.1093 94.0265 48.6962C94.3662 48.283 94.7192 47.8189 95.0721 47.3038C95.2795 46.9621 95.5089 46.753 95.7648 46.6867C96.0163 46.6204 96.3339 46.7377 96.7222 47.0488C97.2251 47.3905 97.5163 47.7373 97.5913 48.079C97.6663 48.4208 97.6134 48.7829 97.4369 49.1603C97.1678 49.6754 96.7442 50.318 96.1663 51.0932C95.5883 51.8633 94.8824 52.5264 94.0485 53.0772C93.2147 53.628 92.2794 53.9034 91.2426 53.9034L91.2514 53.8983Z" fill="#05343B"/>
<path d="M102.661 53.1639C101.443 53.1639 100.499 52.9089 99.8326 52.3938C99.1664 51.8787 98.7208 51.1902 98.4958 50.3333C98.2752 49.4765 98.2134 48.5483 98.3193 47.5538C98.4252 46.5592 98.6105 45.58 98.8752 44.6161L103.777 27.4133C103.984 26.7248 104.231 26.281 104.514 26.0719C104.796 25.8679 105.22 25.7608 105.784 25.7608C106.706 25.7608 107.293 25.924 107.545 26.2504C107.796 26.5769 107.818 27.0818 107.611 27.7703L102.797 44.7181C102.29 46.4674 102.1 47.6711 102.219 48.3239C102.339 48.9767 102.784 49.3031 103.556 49.3031C103.971 49.3031 104.275 49.502 104.469 49.8947C104.664 50.2874 104.739 50.7362 104.695 51.2361C104.65 51.7359 104.456 52.1796 104.117 52.5774C103.777 52.9701 103.292 53.169 102.669 53.169L102.661 53.1639ZM108.542 17.8301C107.946 17.8301 107.443 17.6057 107.028 17.162C106.614 16.7183 106.406 16.0654 106.406 15.2035C106.406 14.2753 106.667 13.4032 107.187 12.5769C107.708 11.7507 108.515 11.3427 109.614 11.3427C110.236 11.3427 110.756 11.5569 111.176 11.9853C111.59 12.4137 111.798 13.0768 111.798 13.9693C111.798 14.8618 111.537 15.7747 111.017 16.5959C110.496 17.4221 109.671 17.8301 108.542 17.8301Z" fill="#05343B"/>
<path d="M116.651 53.1639C115.226 53.1639 114.052 52.8222 113.13 52.1337C112.208 51.4452 111.524 50.5221 111.079 49.3541C110.633 48.1862 110.434 46.855 110.479 45.3607C110.523 43.8664 110.77 42.3159 111.215 40.6992L114.114 30.6519H110.682C110.355 30.6519 110.13 30.4785 110.015 30.1368C109.896 29.7951 109.909 29.2799 110.059 28.5914C110.236 27.9029 110.474 27.3878 110.774 27.0461C111.074 26.7044 111.37 26.531 111.665 26.531H115.274L118.169 16.3307C118.345 15.6421 118.574 15.1984 118.861 14.9893C119.144 14.7853 119.58 14.6782 120.176 14.6782C121.098 14.6782 121.685 14.8414 121.936 15.1678C122.188 15.4942 122.21 15.9992 122.002 16.6877L119.196 26.5259H124.813C125.139 26.5259 125.369 26.6891 125.506 27.0155C125.638 27.3419 125.616 27.8672 125.439 28.5863C125.289 29.2391 125.069 29.7441 124.769 30.1062C124.473 30.4683 124.16 30.6468 123.833 30.6468H118.041L115.054 41.1531C114.639 42.525 114.414 43.7287 114.388 44.7589C114.357 45.7891 114.467 46.6408 114.723 47.309C114.974 47.9771 115.354 48.4769 115.861 48.8033C116.364 49.1297 116.946 49.2929 117.599 49.2929C118.014 49.2929 118.319 49.4918 118.513 49.8845C118.707 50.2772 118.773 50.7261 118.711 51.2259C118.654 51.7257 118.451 52.1694 118.111 52.5672C117.771 52.9599 117.286 53.1588 116.664 53.1588L116.651 53.1639Z" fill="#05343B"/>
<path d="M143.206 53.0619C142.019 53.0619 141.141 52.7865 140.577 52.2357C140.012 51.6849 139.672 50.9759 139.553 50.0987C139.434 49.2215 139.456 48.2882 139.619 47.2936C139.783 46.2991 139.999 45.3352 140.263 44.4069L143.162 34.5688C143.577 33.1968 143.687 32.0391 143.497 31.0905C143.303 30.1469 142.628 29.6726 141.472 29.6726C140.519 29.6726 139.487 30.0857 138.375 30.9069C137.259 31.7331 136.116 32.9061 134.943 34.4362C133.769 35.9662 132.631 37.7819 131.532 39.8984C130.434 42.0099 129.41 44.3202 128.457 46.8244L127.076 51.7155C126.957 52.1643 126.75 52.4958 126.454 52.7202C126.159 52.9446 125.664 53.0568 124.985 53.0568C124.508 53.0568 124.072 52.9344 123.67 52.6947C123.269 52.455 123.141 52.0062 123.291 51.3533L137.237 1.65242C137.413 0.963897 137.643 0.520184 137.929 0.311078C138.212 0.107073 138.649 -3.05176e-05 139.244 -3.05176e-05C140.166 -3.05176e-05 140.753 0.163174 141.005 0.489584C141.256 0.815993 141.278 1.32091 141.071 2.00943L131.934 34.4617C132.763 33.054 133.632 31.7994 134.541 30.7029C135.446 29.6063 136.359 28.6679 137.281 27.8927C138.203 27.1225 139.13 26.536 140.065 26.1433C141 25.7506 141.944 25.5517 142.893 25.5517C144.349 25.5517 145.461 25.9546 146.237 26.7604C147.009 27.5663 147.442 28.7444 147.53 30.2897C147.618 31.8351 147.353 33.7068 146.727 35.905L143.564 46.7224C143.387 47.3089 143.281 47.7781 143.25 48.1403C143.219 48.5024 143.272 48.7676 143.405 48.941C143.537 49.1144 143.722 49.196 143.961 49.196C144.287 49.196 144.622 49.0685 144.962 48.8084C145.302 48.5534 145.646 48.2168 145.986 47.8036C146.325 47.3905 146.678 46.9468 147.031 46.4623C147.27 46.1206 147.512 45.9115 147.768 45.8452C148.02 45.7789 148.342 45.8962 148.725 46.2073C149.202 46.549 149.475 46.8958 149.55 47.2375C149.625 47.5792 149.573 47.9413 149.396 48.3188C149.127 48.8339 148.703 49.4765 148.125 50.2517C147.547 51.0218 146.842 51.6849 146.008 52.2357C145.174 52.7865 144.239 53.0619 143.202 53.0619H143.206Z" fill="#05343B"/>
<path d="M163.439 0.520233C164.18 0.520233 164.723 0.719139 165.067 1.11185C165.407 1.50966 165.579 1.99418 165.579 2.58069C165.579 3.54462 165.438 4.57995 165.155 5.69688C164.873 6.81381 164.48 7.94605 163.973 9.09868C163.466 10.2513 162.874 11.3325 162.191 12.3424C161.507 13.3573 160.766 14.2243 159.963 14.9434C159.724 15.1475 159.495 15.3056 159.27 15.4076C159.049 15.5096 158.846 15.5606 158.67 15.5606C158.374 15.5606 158.048 15.3872 157.69 15.0454C157.333 14.7037 157.157 14.3569 157.157 14.0152C157.157 13.8418 157.187 13.6786 157.245 13.5256C157.302 13.3726 157.395 13.189 157.514 12.985C158.405 11.6794 159.102 10.4808 159.61 9.37919C160.113 8.28265 160.483 7.20652 160.721 6.16099C160.96 5.11546 161.092 3.98833 161.123 2.7847C161.154 2.13188 161.37 1.59126 161.767 1.16285C162.169 0.734439 162.724 0.520233 163.439 0.520233Z" fill="#05343B"/>
<path d="M163.704 53.2659C162.398 53.2659 161.171 53.0262 160.029 52.5468C158.886 52.0673 157.88 51.44 157.02 50.6648C156.16 49.8947 155.489 49.094 155.017 48.2677C154.84 47.8903 154.748 47.5129 154.748 47.1355C154.748 46.7581 154.955 46.3807 155.37 46.0033C155.754 45.6616 156.129 45.4525 156.486 45.3862C156.843 45.3199 157.139 45.5086 157.377 45.9523C158.061 47.0182 158.965 47.9107 160.095 48.6298C161.224 49.349 162.429 49.7111 163.704 49.7111C164.833 49.7111 165.76 49.5581 166.488 49.247C167.216 48.9359 167.763 48.4666 168.138 47.8291C168.508 47.1916 168.694 46.4317 168.694 45.5392C168.694 44.6466 168.478 43.9428 168.05 43.3257C167.617 42.7086 167.07 42.1578 166.4 41.6784C165.733 41.1989 165.01 40.7195 164.238 40.235C163.466 39.7556 162.746 39.2048 162.076 38.5877C161.41 37.9705 160.858 37.2157 160.426 36.3232C159.993 35.4307 159.782 34.3494 159.782 33.0795C159.782 31.8096 160.051 30.6059 160.585 29.4737C161.118 28.3415 161.974 27.403 163.148 26.6686C164.322 25.9291 165.83 25.5619 167.67 25.5619C169.007 25.5619 170.194 25.7761 171.235 26.2045C172.276 26.6329 173.145 27.1735 173.842 27.8264C174.54 28.4792 175.069 29.132 175.426 29.7848C175.665 30.1979 175.797 30.5549 175.828 30.866C175.859 31.1771 175.634 31.5546 175.157 31.9983C174.769 32.3094 174.429 32.4777 174.134 32.5134C173.838 32.5491 173.538 32.4114 173.242 32.1003C172.528 31.2435 171.72 30.5294 170.816 29.9633C169.911 29.3972 168.804 29.1116 167.498 29.1116C166.1 29.1116 165.107 29.4482 164.511 30.1163C163.916 30.7844 163.62 31.6209 163.62 32.6154C163.62 33.4059 163.836 34.1097 164.264 34.7269C164.697 35.344 165.244 35.905 165.914 36.3997C166.58 36.8995 167.304 37.3942 168.076 37.894C168.848 38.3939 169.567 38.9498 170.238 39.5669C170.904 40.184 171.456 40.9337 171.888 41.8059C172.316 42.6831 172.532 43.7388 172.532 44.973C172.532 46.9672 172.139 48.5686 171.35 49.7876C170.564 51.0065 169.501 51.8888 168.164 52.4397C166.827 52.9905 165.341 53.2659 163.708 53.2659H163.704Z" fill="#05343B"/>
<path d="M14.1225 111.481C11.9254 111.481 9.95768 111.058 8.21938 110.221C6.48109 109.38 4.99428 108.161 3.76336 106.565C2.53244 104.968 1.5927 103.03 0.957384 100.745C0.317657 98.4605 0 95.8798 0 92.9931C0 90.5195 0.247067 87.9695 0.736789 85.3429C1.22651 82.7163 1.9633 80.105 2.94274 77.5142C3.92219 74.9233 5.13987 72.465 6.5958 70.1495C8.05173 67.8341 9.72385 65.7787 11.6077 63.9937C13.496 62.2086 15.6093 60.801 17.9565 59.7707C20.3036 58.7405 22.8449 58.2254 25.5758 58.2254C27.4465 58.2254 29.1318 58.4549 30.6319 58.919C32.1319 59.3831 33.4599 60.0717 34.6202 60.9795C35.7806 61.8873 36.7424 63.0144 37.5145 64.3558C37.7836 64.7689 37.8409 65.1259 37.6909 65.437C37.5409 65.7481 37.2453 66.1051 36.7997 66.5182C36.4115 66.8599 36.0718 67.0334 35.7762 67.0334C35.4806 67.0334 35.11 66.8089 34.6644 66.3652C33.654 65.1616 32.3702 64.2385 30.8084 63.5857C29.2465 62.9328 27.2965 62.6064 24.9493 62.6064C22.8978 62.6064 20.9742 63.0297 19.1786 63.8662C17.3829 64.7077 15.7108 65.8756 14.1666 67.37C12.6225 68.8643 11.2327 70.5831 10.0018 72.5211C8.77087 74.4592 7.72084 76.54 6.86052 78.7535C6.0002 80.967 5.33841 83.2263 4.87957 85.5265C4.42073 87.8266 4.1869 90.0605 4.1869 92.223C4.1869 94.6608 4.39426 96.808 4.80898 98.6594C5.2237 100.511 5.86343 102.066 6.72375 103.321C7.58407 104.576 8.68263 105.519 10.0194 106.151C11.3563 106.789 12.9445 107.105 14.7887 107.105C15.9755 107.105 17.127 106.901 18.2432 106.488C19.355 106.075 20.4404 105.473 21.4948 104.683C22.5493 103.892 23.6125 102.923 24.6802 101.77C25.7479 100.623 26.8465 99.2918 27.9759 97.777C28.3333 97.3639 28.6818 97.2211 29.0215 97.3384C29.3612 97.4608 29.7142 97.726 30.0672 98.1391C30.451 98.6186 30.6672 99.0419 30.7113 99.3989C30.7554 99.7559 30.601 100.179 30.2436 100.659C28.2847 103.474 26.3523 105.662 24.4508 107.228C22.5493 108.788 20.7316 109.89 18.9933 110.522C17.255 111.16 15.627 111.476 14.1137 111.476L14.1225 111.481Z" fill="#05343B"/>
<path d="M34.5716 98.5268C34.0952 98.5268 33.6496 98.4044 33.2348 98.1646C32.8201 97.9249 32.7142 97.4761 32.9216 96.8284L39.6056 72.873C39.813 72.1845 40.0601 71.7408 40.3424 71.5317C40.6248 71.3277 41.0483 71.2206 41.6131 71.2206C42.5351 71.2206 43.1219 71.3838 43.3734 71.7102C43.6249 72.0366 43.6469 72.5415 43.4396 73.23L41.5248 80.0795C42.3851 78.6362 43.2543 77.351 44.1323 76.2187C45.0102 75.0865 45.8705 74.1328 46.7176 73.3575C47.5647 72.5823 48.3897 72.0009 49.1927 71.6082C49.9957 71.2155 50.7236 71.0166 51.3766 71.0166C52.1796 71.0166 52.8767 71.2155 53.4723 71.6082C54.0679 72.0009 54.5399 72.4752 54.8973 73.026C55.1664 73.3677 55.2856 73.74 55.2547 74.1328C55.2238 74.5255 55.0473 74.9488 54.7208 75.3925C54.3944 75.8413 54.0811 76.1473 53.7855 76.3207C53.4899 76.4941 53.2075 76.4227 52.9384 76.1167C52.5811 75.8413 52.2193 75.6118 51.8487 75.4231C51.4781 75.2344 51.1119 75.1426 50.7589 75.1426C49.9869 75.1426 49.0736 75.5557 48.0191 76.3768C46.9647 77.203 45.8485 78.3761 44.6793 79.9061C43.5058 81.4362 42.3543 83.2467 41.2248 85.3429C40.0954 87.439 39.0541 89.7392 38.1056 92.2434L36.7247 97.1905C36.6055 97.6393 36.3894 97.9708 36.0805 98.1952C35.7673 98.4197 35.2687 98.5319 34.5893 98.5319L34.5716 98.5268Z" fill="#05343B"/>
<path d="M59.393 97.8433C57.6415 97.8433 56.1856 97.4149 55.0252 96.553C53.8649 95.6911 52.9958 94.5333 52.4178 93.0747C51.8398 91.616 51.5486 89.9942 51.5486 88.2091C51.5486 86.2201 51.8619 84.1545 52.484 82.0278C53.106 79.901 54.0149 77.9425 55.2017 76.1575C56.3885 74.3724 57.8533 72.9189 59.5916 71.802C61.3298 70.685 63.3417 70.1291 65.6315 70.1291C67.0256 70.1291 68.1992 70.379 69.1522 70.8737C70.1007 71.3736 70.8243 72.0672 71.314 72.9597C71.8037 73.8522 72.0508 74.9335 72.0508 76.2034C72.0508 77.611 71.6846 78.881 70.961 80.0132C70.2331 81.1454 69.258 82.1706 68.0404 83.0784C66.8227 83.9913 65.4197 84.7614 63.8314 85.3939C62.2431 86.0314 60.5798 86.5516 58.8415 86.9647C57.1032 87.3778 55.3561 87.6838 53.6046 87.8929L54.1384 84.2361C55.2988 84.0984 56.5165 83.8944 57.7915 83.619C59.0665 83.3436 60.3151 83.0019 61.5328 82.5888C62.7505 82.1757 63.849 81.681 64.8285 81.0944C65.8079 80.513 66.58 79.8602 67.1447 79.136C67.7095 78.4169 67.9918 77.611 67.9918 76.7134C67.9918 75.8158 67.7492 75.1783 67.255 74.7805C66.7653 74.3877 66.0726 74.1888 65.1814 74.1888C63.6682 74.1888 62.3093 74.6275 61.1048 75.5047C59.9004 76.3819 58.8901 77.5141 58.0739 78.9065C57.2577 80.2988 56.6312 81.7932 56.2032 83.3895C55.7708 84.9858 55.5591 86.5057 55.5591 87.949C55.5591 89.117 55.7223 90.137 56.0488 91.0142C56.3753 91.8914 56.865 92.5596 57.518 93.0237C58.1709 93.4878 58.9739 93.7173 59.9224 93.7173C60.871 93.7173 61.7357 93.5031 62.5078 93.0747C63.2799 92.6463 64.0079 92.0802 64.6917 91.3763C65.3756 90.6725 66.0594 89.9075 66.7433 89.0864C67.1271 88.607 67.5462 88.4233 67.9918 88.5457C68.4374 88.6682 68.808 88.913 69.108 89.2904C69.4345 89.6678 69.6286 90.0707 69.686 90.4991C69.7434 90.9275 69.5801 91.4018 69.1963 91.9169C68.1286 93.396 67.0433 94.569 65.9447 95.4462C64.8461 96.3235 63.752 96.9406 62.6711 97.3027C61.5857 97.6648 60.496 97.8433 59.3974 97.8433H59.393Z" fill="#05343B"/>
<path d="M77.0408 97.8893C75.9422 97.8893 74.9848 97.5731 74.1686 96.9356C73.3524 96.298 72.7215 95.3902 72.2759 94.207C71.8303 93.0238 71.6053 91.6416 71.6053 90.0606C71.6053 88.4795 71.8082 86.7965 72.2053 85.0114C72.6068 83.2264 73.2156 81.4668 74.0318 79.7328C74.848 77.9987 75.8451 76.4177 77.0187 74.9947C78.1923 73.5718 79.5511 72.4294 81.0953 71.5674C82.6395 70.7106 84.3778 70.2822 86.3102 70.2822C87.2014 70.2822 88.1235 70.4301 89.072 70.7208C90.0206 71.0115 90.9294 71.4144 91.7898 71.9295L91.8339 71.7255C92.0104 71.1747 92.2442 70.833 92.5266 70.6953C92.8089 70.5576 93.2148 70.4913 93.7531 70.4913C94.6752 70.4913 95.2619 70.6545 95.5134 70.9809C95.7649 71.3073 95.787 71.8122 95.5796 72.5008L90.1 91.509C89.95 92.0598 89.8618 92.5137 89.8309 92.8758C89.8 93.238 89.8441 93.5032 89.9632 93.6766C90.0824 93.85 90.2765 93.9316 90.5412 93.9316C90.8677 93.9316 91.1942 93.8143 91.5206 93.5695C91.8471 93.3298 92.1824 93.0034 92.5221 92.5902C92.8619 92.1771 93.2104 91.713 93.5678 91.1979C93.806 90.8562 94.0487 90.6471 94.3046 90.5808C94.556 90.5145 94.8781 90.6318 95.2619 90.9429C95.7384 91.2846 96.012 91.6314 96.087 91.9731C96.162 92.3148 96.1223 92.6769 95.9767 93.0543C95.7075 93.5695 95.284 94.2121 94.706 94.9873C94.1281 95.7625 93.4222 96.4204 92.5883 96.9713C91.7545 97.5221 90.8191 97.7975 89.7823 97.7975C88.7455 97.7975 87.9558 97.5578 87.422 97.0784C86.8881 96.5989 86.5396 95.9869 86.3764 95.2474C86.2131 94.5079 86.1734 93.7123 86.2661 92.8503C86.3543 91.9935 86.4911 91.1673 86.6675 90.3768C86.6984 90.3105 86.7205 90.2289 86.7337 90.1473C86.747 90.0606 86.769 89.9688 86.7999 89.8617C85.6131 91.7181 84.4439 93.2431 83.3013 94.4467C82.1586 95.6503 81.06 96.5275 80.0056 97.0733C78.9511 97.6241 77.9628 97.8995 77.0408 97.8995V97.8893ZM75.6554 89.2853C75.6554 90.2136 75.7613 91.0092 75.9687 91.6824C76.176 92.3505 76.4804 92.8656 76.8819 93.2278C77.2834 93.5899 77.7511 93.7684 78.2849 93.7684C79.2952 93.7684 80.4247 93.2125 81.6733 92.0955C82.9218 90.9786 84.2145 89.3465 85.5513 87.2045C86.8881 85.0573 88.2558 82.4562 89.65 79.4013L90.7662 75.4843C89.8441 75.0406 88.9838 74.7397 88.1808 74.5816C87.3779 74.4286 86.619 74.3521 85.9087 74.3521C84.5719 74.3521 83.3542 74.6887 82.2556 75.3568C81.1571 76.025 80.1997 76.9175 79.3835 78.0344C78.5673 79.1513 77.8834 80.3805 77.3319 81.7167C76.7805 83.053 76.3657 84.3892 76.0834 85.7101C75.801 87.0311 75.6598 88.2245 75.6598 89.2904L75.6554 89.2853Z" fill="#05343B"/>
<path d="M97.9841 96.8947C97.5076 96.8947 97.062 96.7723 96.6473 96.5326C96.2325 96.2929 96.1266 95.8441 96.334 95.1913L103.018 71.241C103.225 70.5525 103.472 70.1087 103.755 69.8996C104.037 69.6956 104.461 69.5885 105.025 69.5885C105.948 69.5885 106.534 69.7517 106.786 70.0781C107.037 70.4046 107.059 70.9095 106.852 71.598L105.07 77.9834C105.873 76.6114 106.702 75.3823 107.567 74.3011C108.427 73.2198 109.296 72.3171 110.174 71.598C111.052 70.8789 111.943 70.328 112.848 69.9506C113.752 69.5732 114.652 69.3845 115.543 69.3845C117.149 69.3845 118.314 69.8384 119.042 70.7514C119.77 71.6643 120.132 72.9087 120.132 74.4847C120.132 76.0606 119.849 77.8151 119.285 79.7378L114.829 95.5534C114.679 96.0022 114.458 96.3337 114.163 96.5581C113.867 96.7825 113.373 96.8947 112.693 96.8947C112.217 96.8947 111.771 96.7723 111.357 96.5326C110.942 96.2929 110.836 95.8441 111.043 95.1913L115.768 78.3965C116.038 77.504 116.201 76.6879 116.258 75.9484C116.316 75.2089 116.192 74.6173 115.879 74.1736C115.566 73.7298 114.979 73.5054 114.118 73.5054C113.196 73.5054 112.204 73.9186 111.132 74.7397C110.064 75.5659 108.97 76.7389 107.858 78.269C106.746 79.799 105.652 81.5994 104.584 83.6751C103.517 85.756 102.506 88.0307 101.553 90.4991L100.128 95.5483C100.009 95.9971 99.7929 96.3286 99.4841 96.553C99.1753 96.7774 98.6767 96.8896 97.9929 96.8896L97.9841 96.8947ZM130.509 96.8947C129.348 96.8947 128.488 96.6193 127.923 96.0685C127.359 95.5177 127.019 94.8087 126.9 93.9315C126.781 93.0543 126.803 92.121 126.966 91.1264C127.129 90.1319 127.345 89.168 127.61 88.2398L130.46 78.4016C130.729 77.5091 130.892 76.693 130.95 75.9535C131.007 75.214 130.884 74.6224 130.57 74.1787C130.257 73.7349 129.67 73.5105 128.81 73.5105C127.857 73.5105 126.834 73.9389 125.735 74.8009C124.636 75.6577 123.52 76.8868 122.391 78.4832C121.261 80.0795 120.154 81.9513 119.073 84.0984C117.988 86.2456 116.973 88.5866 116.02 91.1315H114.282C115.323 87.7297 116.448 84.6952 117.67 82.0125C118.888 79.3349 120.194 77.05 121.592 75.163C122.991 73.2759 124.416 71.8428 125.872 70.8636C127.328 69.8843 128.797 69.3947 130.284 69.3947C131.89 69.3947 133.045 69.8588 133.76 70.7871C134.475 71.7153 134.837 72.9597 134.85 74.5204C134.863 76.0861 134.59 77.8253 134.025 79.748L130.817 90.5654C130.667 91.1519 130.579 91.6212 130.548 91.9833C130.517 92.3454 130.57 92.6106 130.703 92.784C130.835 92.9574 131.02 93.039 131.259 93.039C131.585 93.039 131.92 92.9217 132.26 92.6769C132.6 92.4372 132.944 92.1108 133.284 91.6977C133.623 91.2846 133.976 90.8204 134.329 90.3053C134.537 89.9636 134.766 89.7545 135.022 89.6882C135.274 89.6219 135.596 89.7392 135.979 90.0503C136.482 90.392 136.765 90.7388 136.827 91.0805C136.884 91.4223 136.84 91.7844 136.694 92.1618C136.425 92.6769 136.001 93.3195 135.424 94.0947C134.846 94.87 134.14 95.5279 133.306 96.0787C132.472 96.6295 131.537 96.9049 130.5 96.9049L130.509 96.8947Z" fill="#05343B"/>
<path d="M145.527 97.2517C143.775 97.2517 142.319 96.8233 141.159 95.9614C139.999 95.1046 139.129 93.9468 138.552 92.4831C137.974 91.0244 137.682 89.4026 137.682 87.6176C137.682 85.6285 137.996 83.568 138.618 81.4362C139.24 79.3094 140.149 77.351 141.335 75.5659C142.522 73.7809 143.987 72.3273 145.725 71.2155C147.464 70.0985 149.475 69.5426 151.765 69.5426C153.159 69.5426 154.333 69.7925 155.286 70.2873C156.234 70.7871 156.958 71.4807 157.448 72.3732C157.937 73.2657 158.185 74.347 158.185 75.6169C158.185 77.0245 157.818 78.2945 157.095 79.4267C156.367 80.5589 155.392 81.5841 154.174 82.4919C152.956 83.4048 151.553 84.1749 149.965 84.8074C148.377 85.4449 146.714 85.9651 144.975 86.3782C143.237 86.7913 141.49 87.0973 139.738 87.3064L140.272 83.6496C141.433 83.5119 142.65 83.3079 143.925 83.0325C145.2 82.7571 146.449 82.4154 147.667 82.0023C148.884 81.5892 149.983 81.0945 150.962 80.5079C151.942 79.9214 152.714 79.2737 153.278 78.5495C153.843 77.8304 154.126 77.0194 154.126 76.1269C154.126 75.2344 153.878 74.5918 153.389 74.194C152.899 73.8013 152.206 73.6023 151.315 73.6023C149.802 73.6023 148.443 74.041 147.239 74.9182C146.034 75.7954 145.024 76.9276 144.208 78.32C143.391 79.7123 142.765 81.2067 142.337 82.803C141.905 84.3994 141.693 85.9192 141.693 87.3625C141.693 88.5305 141.856 89.5505 142.183 90.4277C142.509 91.305 142.999 91.9731 143.652 92.4372C144.305 92.9013 145.108 93.1308 146.056 93.1308C147.005 93.1308 147.869 92.9166 148.642 92.4882C149.414 92.0598 150.142 91.4937 150.825 90.7898C151.509 90.086 152.193 89.321 152.877 88.4999C153.265 88.0205 153.68 87.8369 154.126 87.9593C154.571 88.0817 154.942 88.3265 155.242 88.7039C155.568 89.0813 155.762 89.4842 155.82 89.9126C155.877 90.341 155.714 90.8153 155.33 91.3305C154.262 92.8095 153.177 93.9825 152.078 94.8598C150.98 95.737 149.886 96.3541 148.805 96.7162C147.719 97.0783 146.63 97.2568 145.531 97.2568L145.527 97.2517Z" fill="#05343B"/>
<path d="M158.493 98.5268C158.017 98.5268 157.571 98.4044 157.156 98.1646C156.742 97.9249 156.636 97.4761 156.843 96.8284L163.527 72.873C163.735 72.1845 163.982 71.7408 164.264 71.5317C164.546 71.3277 164.97 71.2206 165.535 71.2206C166.457 71.2206 167.044 71.3838 167.295 71.7102C167.547 72.0366 167.569 72.5415 167.361 73.23L165.446 80.0795C166.307 78.6362 167.176 77.351 168.054 76.2187C168.932 75.0865 169.792 74.1328 170.639 73.3575C171.486 72.5823 172.311 72.0009 173.114 71.6082C173.917 71.2155 174.645 71.0166 175.298 71.0166C176.101 71.0166 176.798 71.2155 177.394 71.6082C177.989 72.0009 178.462 72.4752 178.819 73.026C179.088 73.3677 179.203 73.74 179.176 74.1328C179.145 74.5255 178.969 74.9488 178.642 75.3925C178.316 75.8413 178.003 76.1473 177.707 76.3207C177.412 76.4941 177.129 76.4227 176.86 76.1167C176.503 75.8413 176.141 75.6118 175.77 75.4231C175.4 75.2344 175.034 75.1426 174.681 75.1426C173.908 75.1426 172.995 75.5557 171.941 76.3768C170.886 77.203 169.77 78.3761 168.597 79.9061C167.423 81.4362 166.271 83.2467 165.142 85.3429C164.013 87.439 162.971 89.7392 162.023 92.2434L160.642 97.1905C160.523 97.6393 160.307 97.9708 159.998 98.1952C159.684 98.4197 159.19 98.5319 158.507 98.5319L158.493 98.5268Z" fill="#05343B"/>
<path d="M178.144 122.314C177.076 122.314 176.123 122.064 175.294 121.569C174.46 121.069 173.816 120.386 173.357 119.509C172.898 118.632 172.664 117.647 172.664 116.546C172.664 115.24 172.894 113.955 173.357 112.68C173.816 111.41 174.495 110.165 175.387 108.946C176.278 107.727 177.363 106.473 178.638 105.188C179.913 103.902 181.387 102.586 183.05 101.245C183.972 100.557 184.899 99.863 185.834 99.1592C186.769 98.4554 187.713 97.7617 188.662 97.0732L191.38 87.388C190.519 88.8314 189.641 90.1115 188.75 91.2234C187.859 92.3403 186.955 93.2838 186.032 94.059C185.11 94.8292 184.184 95.4055 183.249 95.7829C182.313 96.1603 181.382 96.349 180.465 96.349C179.009 96.349 177.87 95.9512 177.054 95.1658C176.238 94.3752 175.775 93.2175 175.673 91.6875C175.567 90.1574 175.814 88.3316 176.41 86.1997L180.866 70.6953C181.073 70.0067 181.321 69.563 181.603 69.3539C181.885 69.1499 182.309 69.0428 182.874 69.0428C183.796 69.0428 184.382 69.206 184.634 69.5324C184.885 69.8588 184.907 70.3638 184.7 71.0523L180.068 87.0718C179.772 88.0664 179.6 88.9589 179.556 89.7494C179.512 90.5399 179.666 91.1571 180.023 91.6059C180.381 92.0547 180.99 92.274 181.85 92.274C182.799 92.274 183.835 91.8456 184.947 90.9888C186.063 90.1319 187.197 88.9283 188.358 87.3829C189.518 85.8376 190.652 84.0016 191.768 81.8697C192.884 79.7429 193.912 77.4071 194.865 74.8621L196.025 70.6902C196.233 70.0017 196.48 69.5579 196.762 69.3488C197.045 69.1448 197.468 69.0377 198.033 69.0377C198.955 69.0377 199.542 69.2009 199.793 69.5273C200.045 69.8537 200.067 70.3587 199.859 71.0472L189.297 108.498C188.613 110.971 187.894 113.083 187.135 114.832C186.377 116.581 185.56 118.009 184.687 119.106C183.809 120.202 182.838 121.013 181.766 121.528C180.698 122.044 179.494 122.299 178.157 122.299L178.144 122.314ZM178.766 118.346C179.481 118.346 180.156 118.122 180.796 117.678C181.435 117.229 182.022 116.586 182.556 115.745C183.09 114.903 183.61 113.858 184.118 112.603C184.621 111.349 185.097 109.915 185.543 108.304L187.149 102.586C186.641 102.964 186.13 103.341 185.613 103.719C185.093 104.096 184.581 104.474 184.078 104.851C182.799 105.917 181.687 106.947 180.734 107.942C179.781 108.936 179.009 109.89 178.418 110.803C177.822 111.711 177.376 112.588 177.081 113.429C176.785 114.271 176.635 115.067 176.635 115.826C176.635 116.342 176.714 116.785 176.882 117.163C177.045 117.54 177.288 117.831 177.619 118.04C177.945 118.244 178.334 118.351 178.779 118.351L178.766 118.346ZM191.022 95.6809C191.618 95.2372 192.209 94.8037 192.805 94.3906C193.4 93.9774 193.969 93.5898 194.521 93.2328C195.072 92.8707 195.606 92.5392 196.127 92.2281C196.647 91.917 197.098 91.6467 197.486 91.4019C197.962 91.1622 198.337 91.152 198.624 91.3764C198.906 91.6008 199.092 91.9425 199.18 92.4066C199.268 92.8707 199.255 93.3348 199.136 93.7989C199.017 94.263 198.792 94.5997 198.47 94.8037C197.874 95.1454 197.256 95.5432 196.621 95.9869C195.981 96.4306 195.32 96.8794 194.64 97.3231C193.956 97.7719 193.264 98.2412 192.566 98.741C191.869 99.2408 191.177 99.7457 190.493 100.261L191.027 95.6758L191.022 95.6809Z" fill="#05343B"/>
<path d="M49.4719 113.764C48.9719 113.764 48.5185 113.681 48.1119 113.514C47.7052 113.341 47.3552 113.094 47.0619 112.774C46.7752 112.447 46.5519 112.057 46.3919 111.604C46.2385 111.144 46.1619 110.631 46.1619 110.064C46.1619 109.577 46.2152 109.081 46.3219 108.574C46.4352 108.061 46.5985 107.557 46.8119 107.064C47.0252 106.564 47.2852 106.097 47.5919 105.664C47.9052 105.224 48.2652 104.837 48.6719 104.504C49.0852 104.164 49.5419 103.901 50.0419 103.714C50.5419 103.521 51.0852 103.424 51.6719 103.424C52.1719 103.424 52.6219 103.511 53.0219 103.684C53.4285 103.851 53.7719 104.094 54.0519 104.414C54.3385 104.734 54.5585 105.121 54.7119 105.574C54.8719 106.027 54.9519 106.534 54.9519 107.094C54.9519 107.614 54.8952 108.141 54.7819 108.674C54.6685 109.201 54.5019 109.714 54.2819 110.214C54.0619 110.707 53.7952 111.171 53.4819 111.604C53.1685 112.031 52.8085 112.407 52.4019 112.734C51.9952 113.054 51.5452 113.307 51.0519 113.494C50.5652 113.674 50.0385 113.764 49.4719 113.764ZM49.6219 112.914C50.0752 112.914 50.4985 112.834 50.8919 112.674C51.2852 112.514 51.6452 112.294 51.9719 112.014C52.3052 111.727 52.5985 111.397 52.8519 111.024C53.1052 110.651 53.3185 110.251 53.4919 109.824C53.6652 109.397 53.7952 108.964 53.8819 108.524C53.9752 108.084 54.0219 107.651 54.0219 107.224C54.0219 106.744 53.9685 106.321 53.8619 105.954C53.7552 105.587 53.5952 105.281 53.3819 105.034C53.1685 104.781 52.9052 104.591 52.5919 104.464C52.2852 104.337 51.9285 104.274 51.5219 104.274C51.0752 104.274 50.6519 104.354 50.2519 104.514C49.8585 104.674 49.4985 104.897 49.1719 105.184C48.8452 105.471 48.5519 105.801 48.2919 106.174C48.0385 106.547 47.8219 106.947 47.6419 107.374C47.4619 107.794 47.3252 108.224 47.2319 108.664C47.1452 109.097 47.1019 109.524 47.1019 109.944C47.1019 110.417 47.1552 110.841 47.2619 111.214C47.3685 111.581 47.5252 111.891 47.7319 112.144C47.9452 112.391 48.2085 112.581 48.5219 112.714C48.8352 112.847 49.2019 112.914 49.6219 112.914ZM56.4853 113.744C56.2387 113.744 56.022 113.684 55.8353 113.564C55.6553 113.437 55.5153 113.261 55.4153 113.034C55.3153 112.801 55.2653 112.531 55.2653 112.224C55.2653 111.917 55.3087 111.591 55.3953 111.244C55.4887 110.897 55.6253 110.557 55.8053 110.224C55.992 109.884 56.2153 109.577 56.4753 109.304C56.742 109.024 57.0487 108.801 57.3953 108.634C57.742 108.467 58.132 108.384 58.5653 108.384C58.772 108.384 58.982 108.414 59.1953 108.474C59.4153 108.527 59.6253 108.607 59.8253 108.714L61.4753 103.744C61.5153 103.611 61.5653 103.524 61.6253 103.484C61.692 103.444 61.792 103.424 61.9253 103.424C62.132 103.424 62.262 103.457 62.3153 103.524C62.3753 103.584 62.382 103.681 62.3353 103.814L59.5953 112.104C59.4887 112.444 59.452 112.677 59.4853 112.804C59.5253 112.931 59.6653 112.994 59.9053 112.994C59.972 112.994 60.0187 113.034 60.0453 113.114C60.0787 113.187 60.0887 113.274 60.0753 113.374C60.0687 113.467 60.0353 113.551 59.9753 113.624C59.9153 113.704 59.8287 113.744 59.7153 113.744C59.4153 113.744 59.1853 113.697 59.0253 113.604C58.872 113.511 58.7653 113.391 58.7053 113.244C58.6453 113.097 58.6187 112.937 58.6253 112.764C58.632 112.591 58.6553 112.427 58.6953 112.274L58.7053 112.194C58.4387 112.554 58.172 112.847 57.9053 113.074C57.6453 113.301 57.3953 113.467 57.1553 113.574C56.9153 113.687 56.692 113.744 56.4853 113.744ZM56.7653 112.944C56.9987 112.944 57.252 112.841 57.5253 112.634C57.7987 112.427 58.0887 112.124 58.3953 111.724C58.7087 111.317 59.0153 110.827 59.3153 110.254L59.6053 109.414C59.3853 109.321 59.182 109.257 58.9953 109.224C58.8087 109.191 58.6353 109.174 58.4753 109.174C58.1753 109.174 57.902 109.241 57.6553 109.374C57.4087 109.501 57.192 109.674 57.0053 109.894C56.8253 110.107 56.672 110.344 56.5453 110.604C56.4253 110.864 56.332 111.124 56.2653 111.384C56.2053 111.637 56.1753 111.867 56.1753 112.074C56.1753 112.254 56.1987 112.411 56.2453 112.544C56.292 112.671 56.3587 112.771 56.4453 112.844C56.5387 112.911 56.6453 112.944 56.7653 112.944ZM59.7116 113.744C59.6182 113.744 59.5482 113.704 59.5016 113.624C59.4549 113.551 59.4382 113.467 59.4516 113.374C59.4649 113.274 59.5082 113.187 59.5816 113.114C59.6549 113.034 59.7616 112.994 59.9016 112.994C60.0749 112.994 60.2582 112.941 60.4516 112.834C60.6382 112.721 60.8282 112.567 61.0216 112.374C61.2149 112.174 61.4049 111.937 61.5916 111.664C61.7849 111.391 61.9749 111.094 62.1616 110.774C62.2082 110.681 62.2749 110.641 62.3616 110.654C62.4549 110.661 62.5316 110.701 62.5916 110.774C62.6516 110.841 62.6582 110.917 62.6116 111.004C62.3849 111.451 62.1549 111.847 61.9216 112.194C61.6882 112.534 61.4516 112.821 61.2116 113.054C60.9716 113.281 60.7282 113.454 60.4816 113.574C60.2349 113.687 59.9782 113.744 59.7116 113.744ZM63.0116 113.744C62.7649 113.744 62.5516 113.684 62.3716 113.564C62.1916 113.437 62.0516 113.261 61.9516 113.034C61.8516 112.801 61.8016 112.531 61.8016 112.224C61.8016 111.917 61.8449 111.591 61.9316 111.244C62.0249 110.897 62.1616 110.557 62.3416 110.224C62.5216 109.884 62.7416 109.577 63.0016 109.304C63.2682 109.024 63.5749 108.801 63.9216 108.634C64.2749 108.467 64.6649 108.384 65.0916 108.384C65.3582 108.384 65.6349 108.434 65.9216 108.534C66.2082 108.627 66.4649 108.754 66.6916 108.914L66.5316 109.604C66.2182 109.431 65.9382 109.317 65.6916 109.264C65.4516 109.204 65.2216 109.174 65.0016 109.174C64.7016 109.174 64.4282 109.241 64.1816 109.374C63.9416 109.501 63.7282 109.674 63.5416 109.894C63.3616 110.107 63.2082 110.344 63.0816 110.604C62.9616 110.864 62.8682 111.124 62.8016 111.384C62.7416 111.637 62.7116 111.867 62.7116 112.074C62.7116 112.254 62.7349 112.411 62.7816 112.544C62.8282 112.671 62.8949 112.771 62.9816 112.844C63.0682 112.911 63.1749 112.944 63.3016 112.944C63.5416 112.944 63.8049 112.827 64.0916 112.594C64.3849 112.354 64.6916 112.007 65.0116 111.554C65.3382 111.094 65.6616 110.541 65.9816 109.894L66.3016 110.294C65.9149 111.101 65.5249 111.757 65.1316 112.264C64.7449 112.771 64.3716 113.144 64.0116 113.384C63.6516 113.624 63.3182 113.744 63.0116 113.744ZM66.0616 113.744C65.7749 113.744 65.5549 113.691 65.4016 113.584C65.2549 113.484 65.1549 113.354 65.1016 113.194C65.0549 113.027 65.0416 112.847 65.0616 112.654C65.0882 112.454 65.1349 112.264 65.2016 112.084L66.3116 108.744C66.3582 108.611 66.4116 108.524 66.4716 108.484C66.5382 108.444 66.6349 108.424 66.7616 108.424C66.9682 108.424 67.0982 108.457 67.1516 108.524C67.2116 108.584 67.2182 108.681 67.1716 108.814L66.0716 112.104C65.9649 112.444 65.9249 112.677 65.9516 112.804C65.9782 112.931 66.0782 112.994 66.2516 112.994C66.3449 112.994 66.4116 113.034 66.4516 113.114C66.4982 113.187 66.5149 113.274 66.5016 113.374C66.4882 113.467 66.4449 113.551 66.3716 113.624C66.3049 113.704 66.2016 113.744 66.0616 113.744ZM66.0592 113.744C65.9659 113.744 65.8959 113.704 65.8492 113.624C65.8026 113.551 65.7859 113.467 65.7992 113.374C65.8126 113.274 65.8559 113.187 65.9292 113.114C66.0026 113.034 66.1092 112.994 66.2492 112.994C66.4226 112.994 66.6126 112.927 66.8192 112.794C67.0192 112.654 67.2459 112.441 67.4992 112.154C67.7526 111.861 68.0392 111.484 68.3592 111.024C68.6859 110.564 69.0526 110.007 69.4592 109.354C69.5192 109.261 69.5959 109.221 69.6892 109.234C69.7826 109.241 69.8559 109.281 69.9092 109.354C69.9626 109.421 69.9659 109.497 69.9192 109.584C69.4592 110.377 69.0492 111.044 68.6892 111.584C68.3359 112.117 68.0126 112.544 67.7192 112.864C67.4259 113.177 67.1459 113.404 66.8792 113.544C66.6126 113.677 66.3392 113.744 66.0592 113.744ZM69.6892 113.764C69.3826 113.764 69.1426 113.701 68.9692 113.574C68.7959 113.447 68.6759 113.277 68.6092 113.064C68.5492 112.851 68.5326 112.614 68.5592 112.354C68.5859 112.087 68.6459 111.817 68.7392 111.544L69.6592 108.734C69.6926 108.627 69.7392 108.547 69.7992 108.494C69.8592 108.441 69.9659 108.414 70.1192 108.414C70.3326 108.414 70.4626 108.447 70.5092 108.514C70.5626 108.574 70.5692 108.667 70.5292 108.794L69.5692 111.714C69.5026 111.927 69.4559 112.131 69.4292 112.324C69.4026 112.511 69.4226 112.664 69.4892 112.784C69.5626 112.904 69.7092 112.964 69.9292 112.964C70.0959 112.964 70.2692 112.911 70.4492 112.804C70.6292 112.691 70.8026 112.541 70.9692 112.354C71.1359 112.161 71.2959 111.944 71.4492 111.704C71.6026 111.457 71.7359 111.201 71.8492 110.934L72.5592 108.734C72.5992 108.627 72.6459 108.547 72.6992 108.494C72.7592 108.441 72.8626 108.414 73.0092 108.414C73.2292 108.414 73.3592 108.447 73.3992 108.514C73.4459 108.574 73.4492 108.667 73.4092 108.794L72.5792 111.454C72.5459 111.587 72.5059 111.741 72.4592 111.914C72.4192 112.081 72.3992 112.247 72.3992 112.414C72.3992 112.574 72.4392 112.707 72.5192 112.814C72.5992 112.914 72.7426 112.964 72.9492 112.964C73.1759 112.964 73.3926 112.897 73.5992 112.764C73.8126 112.624 74.0092 112.444 74.1892 112.224C74.3759 111.997 74.5392 111.747 74.6792 111.474C74.8192 111.194 74.9326 110.914 75.0192 110.634C75.0726 110.434 75.1126 110.254 75.1392 110.094C75.1659 109.934 75.1792 109.774 75.1792 109.614C75.0392 109.507 74.9392 109.401 74.8792 109.294C74.8192 109.181 74.7892 109.054 74.7892 108.914C74.7892 108.761 74.8326 108.634 74.9192 108.534C75.0059 108.434 75.1359 108.384 75.3092 108.384C75.5292 108.384 75.6926 108.481 75.7992 108.674C75.9059 108.861 75.9659 109.117 75.9792 109.444C75.9859 109.584 75.9826 109.731 75.9692 109.884C75.9626 110.031 75.9426 110.181 75.9092 110.334C75.8826 110.487 75.8459 110.641 75.7992 110.794C75.6926 111.161 75.5426 111.521 75.3492 111.874C75.1626 112.227 74.9359 112.547 74.6692 112.834C74.4092 113.114 74.1159 113.341 73.7892 113.514C73.4692 113.681 73.1226 113.764 72.7492 113.764C72.4492 113.764 72.2092 113.707 72.0292 113.594C71.8492 113.487 71.7192 113.344 71.6392 113.164C71.5659 112.984 71.5226 112.787 71.5092 112.574C71.3559 112.821 71.1826 113.034 70.9892 113.214C70.8026 113.387 70.5992 113.521 70.3792 113.614C70.1659 113.714 69.9359 113.764 69.6892 113.764ZM76.8264 109.894C76.5664 109.894 76.3131 109.867 76.0664 109.814C75.8131 109.754 75.5731 109.651 75.3464 109.504C75.3131 109.484 75.3031 109.434 75.3164 109.354C75.3231 109.274 75.3464 109.194 75.3864 109.114C75.4197 109.027 75.4631 108.961 75.5164 108.914C75.5697 108.861 75.6197 108.851 75.6664 108.884C75.8264 108.997 76.0331 109.081 76.2864 109.134C76.5397 109.187 76.7931 109.214 77.0464 109.214C77.2864 109.214 77.5331 109.197 77.7864 109.164C78.0464 109.124 78.2964 109.067 78.5364 108.994C78.7831 108.921 79.0031 108.831 79.1964 108.724C79.2431 108.691 79.2697 108.717 79.2764 108.804C79.2897 108.891 79.2831 108.987 79.2564 109.094C79.2364 109.201 79.1997 109.271 79.1464 109.304C78.7864 109.497 78.4097 109.644 78.0164 109.744C77.6297 109.844 77.2331 109.894 76.8264 109.894ZM78.2362 113.744C77.9895 113.744 77.7762 113.684 77.5962 113.564C77.4162 113.437 77.2762 113.261 77.1762 113.034C77.0762 112.801 77.0262 112.531 77.0262 112.224C77.0262 111.917 77.0695 111.591 77.1562 111.244C77.2495 110.897 77.3862 110.557 77.5662 110.224C77.7462 109.884 77.9662 109.577 78.2262 109.304C78.4928 109.024 78.7995 108.801 79.1462 108.634C79.4995 108.467 79.8895 108.384 80.3162 108.384C80.5828 108.384 80.8595 108.434 81.1462 108.534C81.4328 108.627 81.6895 108.754 81.9162 108.914L81.7562 109.604C81.4428 109.431 81.1628 109.317 80.9162 109.264C80.6762 109.204 80.4462 109.174 80.2262 109.174C79.9262 109.174 79.6528 109.241 79.4062 109.374C79.1662 109.501 78.9528 109.674 78.7662 109.894C78.5862 110.107 78.4328 110.344 78.3062 110.604C78.1862 110.864 78.0928 111.124 78.0262 111.384C77.9662 111.637 77.9362 111.867 77.9362 112.074C77.9362 112.254 77.9595 112.411 78.0062 112.544C78.0528 112.671 78.1195 112.771 78.2062 112.844C78.2928 112.911 78.3995 112.944 78.5262 112.944C78.7662 112.944 79.0295 112.827 79.3162 112.594C79.6095 112.354 79.9162 112.007 80.2362 111.554C80.5628 111.094 80.8862 110.541 81.2062 109.894L81.5262 110.294C81.1395 111.101 80.7495 111.757 80.3562 112.264C79.9695 112.771 79.5962 113.144 79.2362 113.384C78.8762 113.624 78.5428 113.744 78.2362 113.744ZM81.2862 113.744C80.9995 113.744 80.7795 113.691 80.6262 113.584C80.4795 113.484 80.3795 113.354 80.3262 113.194C80.2795 113.027 80.2662 112.847 80.2862 112.654C80.3128 112.454 80.3595 112.264 80.4262 112.084L81.5362 108.744C81.5828 108.611 81.6362 108.524 81.6962 108.484C81.7628 108.444 81.8595 108.424 81.9862 108.424C82.1928 108.424 82.3228 108.457 82.3762 108.524C82.4362 108.584 82.4428 108.681 82.3962 108.814L81.2962 112.104C81.1895 112.444 81.1495 112.677 81.1762 112.804C81.2028 112.931 81.3028 112.994 81.4762 112.994C81.5695 112.994 81.6362 113.034 81.6762 113.114C81.7228 113.187 81.7395 113.274 81.7262 113.374C81.7128 113.467 81.6695 113.551 81.5962 113.624C81.5295 113.704 81.4262 113.744 81.2862 113.744ZM81.3038 113.744C81.2038 113.744 81.1405 113.704 81.1138 113.624C81.0872 113.551 81.0905 113.467 81.1238 113.374C81.1505 113.274 81.1972 113.187 81.2638 113.114C81.3305 113.034 81.4038 112.994 81.4838 112.994C81.5972 112.994 81.7205 112.954 81.8538 112.874C81.9872 112.787 82.1272 112.661 82.2738 112.494C82.4138 112.327 82.5638 112.121 82.7238 111.874C82.8838 111.621 83.0472 111.324 83.2138 110.984C83.5005 110.404 83.7572 109.944 83.9838 109.604C84.2172 109.257 84.4305 108.997 84.6238 108.824C84.8238 108.651 85.0138 108.537 85.1938 108.484C85.3805 108.424 85.5638 108.394 85.7438 108.394C85.8105 108.394 85.8538 108.434 85.8738 108.514C85.8938 108.587 85.8938 108.674 85.8738 108.774C85.8538 108.867 85.8138 108.954 85.7538 109.034C85.7005 109.107 85.6272 109.144 85.5338 109.144C85.4538 109.144 85.3605 109.167 85.2538 109.214C85.1538 109.261 85.0405 109.351 84.9138 109.484C84.7938 109.617 84.6538 109.811 84.4938 110.064C84.3405 110.311 84.1605 110.634 83.9538 111.034C83.6605 111.634 83.3905 112.114 83.1438 112.474C82.8972 112.834 82.6672 113.107 82.4538 113.294C82.2405 113.474 82.0405 113.594 81.8538 113.654C81.6672 113.714 81.4838 113.744 81.3038 113.744ZM83.8138 113.724C83.7072 113.724 83.6072 113.701 83.5138 113.654C83.4272 113.607 83.4038 113.521 83.4438 113.394L84.7138 109.444C84.7405 109.357 84.7405 109.287 84.7138 109.234C84.6872 109.174 84.6305 109.144 84.5438 109.144C84.4572 109.144 84.3972 109.107 84.3638 109.034C84.3305 108.954 84.3205 108.867 84.3338 108.774C84.3538 108.674 84.3972 108.587 84.4638 108.514C84.5305 108.434 84.6238 108.394 84.7438 108.394C84.9705 108.394 85.1438 108.434 85.2638 108.514C85.3838 108.594 85.4638 108.697 85.5038 108.824C85.5438 108.951 85.5605 109.091 85.5538 109.244C85.5472 109.391 85.5272 109.531 85.4938 109.664L85.3338 110.144C85.5138 109.857 85.6905 109.607 85.8638 109.394C86.0438 109.174 86.2205 108.991 86.3938 108.844C86.5738 108.691 86.7405 108.577 86.8938 108.504C87.0538 108.424 87.2038 108.384 87.3438 108.384C87.4705 108.384 87.5572 108.424 87.6038 108.504C87.6505 108.584 87.6638 108.677 87.6438 108.784C87.6305 108.891 87.5838 108.984 87.5038 109.064C87.4305 109.144 87.3272 109.184 87.1938 109.184C87.0738 109.184 86.9105 109.264 86.7038 109.424C86.4972 109.577 86.2705 109.801 86.0238 110.094C85.7772 110.387 85.5305 110.737 85.2838 111.144C85.0372 111.544 84.8105 111.991 84.6038 112.484L84.2938 113.464C84.2672 113.551 84.2172 113.614 84.1438 113.654C84.0772 113.701 83.9672 113.724 83.8138 113.724ZM87.9538 110.214C87.7671 110.214 87.6038 110.174 87.4638 110.094C87.3238 110.014 87.2138 109.894 87.1338 109.734C87.0604 109.567 87.0238 109.371 87.0238 109.144L87.3438 108.384C87.4838 108.384 87.5871 108.414 87.6538 108.474C87.7204 108.534 87.7538 108.637 87.7538 108.784C87.7538 108.984 87.7671 109.141 87.7938 109.254C87.8271 109.367 87.8771 109.444 87.9438 109.484C88.0104 109.524 88.0971 109.544 88.2038 109.544C88.3638 109.544 88.5404 109.521 88.7338 109.474C88.9271 109.421 89.1138 109.354 89.2938 109.274C89.4738 109.187 89.6271 109.094 89.7538 108.994C89.8138 108.941 89.8671 108.937 89.9138 108.984C89.9604 109.024 89.9904 109.084 90.0038 109.164C90.0171 109.237 89.9971 109.297 89.9438 109.344C89.7504 109.531 89.5404 109.691 89.3138 109.824C89.0871 109.951 88.8571 110.047 88.6238 110.114C88.3971 110.181 88.1738 110.214 87.9538 110.214ZM88.7638 113.744C88.5171 113.744 88.3004 113.684 88.1138 113.564C87.9338 113.437 87.7938 113.261 87.6938 113.034C87.5938 112.801 87.5438 112.531 87.5438 112.224C87.5438 111.917 87.5871 111.591 87.6738 111.244C87.7671 110.897 87.9038 110.557 88.0838 110.224C88.2704 109.884 88.4938 109.577 88.7538 109.304C89.0204 109.024 89.3271 108.801 89.6738 108.634C90.0204 108.467 90.4104 108.384 90.8438 108.384C91.0438 108.384 91.2504 108.414 91.4638 108.474C91.6771 108.527 91.8804 108.604 92.0738 108.704L92.0838 108.664C92.1238 108.557 92.1738 108.491 92.2338 108.464C92.3004 108.437 92.3938 108.424 92.5138 108.424C92.7204 108.424 92.8504 108.457 92.9038 108.524C92.9638 108.584 92.9704 108.681 92.9238 108.814L91.6938 112.504C91.6604 112.611 91.6404 112.701 91.6338 112.774C91.6271 112.841 91.6371 112.891 91.6638 112.924C91.6904 112.957 91.7338 112.974 91.7938 112.974C91.8671 112.974 91.9404 112.951 92.0138 112.904C92.0871 112.857 92.1604 112.794 92.2338 112.714C92.3138 112.634 92.3938 112.544 92.4738 112.444C92.5271 112.377 92.5804 112.337 92.6338 112.324C92.6938 112.311 92.7671 112.334 92.8538 112.394C92.9604 112.461 93.0204 112.527 93.0338 112.594C93.0538 112.661 93.0471 112.731 93.0138 112.804C92.9538 112.904 92.8571 113.031 92.7238 113.184C92.5971 113.331 92.4404 113.457 92.2538 113.564C92.0671 113.671 91.8571 113.724 91.6238 113.724C91.3904 113.724 91.2138 113.677 91.0938 113.584C90.9738 113.491 90.8938 113.374 90.8538 113.234C90.8204 113.087 90.8138 112.931 90.8338 112.764C90.8538 112.597 90.8838 112.437 90.9238 112.284C90.9304 112.271 90.9338 112.257 90.9338 112.244C90.9404 112.224 90.9471 112.204 90.9538 112.184C90.6871 112.544 90.4238 112.841 90.1638 113.074C89.9104 113.307 89.6638 113.477 89.4238 113.584C89.1904 113.691 88.9704 113.744 88.7638 113.744ZM88.4538 112.074C88.4538 112.254 88.4771 112.411 88.5238 112.544C88.5704 112.671 88.6371 112.771 88.7238 112.844C88.8171 112.911 88.9238 112.944 89.0438 112.944C89.2704 112.944 89.5238 112.837 89.8038 112.624C90.0838 112.404 90.3738 112.087 90.6738 111.674C90.9738 111.254 91.2804 110.747 91.5938 110.154L91.8438 109.394C91.6371 109.307 91.4438 109.251 91.2638 109.224C91.0838 109.191 90.9138 109.174 90.7538 109.174C90.4538 109.174 90.1804 109.241 89.9338 109.374C89.6871 109.501 89.4704 109.674 89.2838 109.894C89.1038 110.107 88.9504 110.344 88.8238 110.604C88.7038 110.864 88.6104 111.124 88.5438 111.384C88.4838 111.637 88.4538 111.867 88.4538 112.074ZM98.3995 113.764C98.1061 113.764 97.8295 113.717 97.5695 113.624C97.3161 113.531 97.0928 113.411 96.8995 113.264C96.7061 113.111 96.5561 112.954 96.4495 112.794C96.4095 112.721 96.3895 112.647 96.3895 112.574C96.3895 112.501 96.4361 112.427 96.5295 112.354C96.6161 112.287 96.6995 112.247 96.7795 112.234C96.8595 112.221 96.9261 112.257 96.9795 112.344C97.1328 112.551 97.3361 112.724 97.5895 112.864C97.8428 113.004 98.1128 113.074 98.3995 113.074C98.6528 113.074 98.8595 113.044 99.0195 112.984C99.1861 112.924 99.3095 112.834 99.3895 112.714C99.4761 112.587 99.5195 112.437 99.5195 112.264C99.5195 112.097 99.4695 111.954 99.3695 111.834C99.2761 111.714 99.1528 111.607 98.9995 111.514C98.8528 111.421 98.6928 111.327 98.5195 111.234C98.3461 111.141 98.1828 111.034 98.0295 110.914C97.8828 110.794 97.7595 110.647 97.6595 110.474C97.5661 110.301 97.5195 110.091 97.5195 109.844C97.5195 109.597 97.5795 109.364 97.6995 109.144C97.8195 108.924 98.0095 108.744 98.2695 108.604C98.5361 108.457 98.8761 108.384 99.2895 108.384C99.5895 108.384 99.8561 108.427 100.089 108.514C100.323 108.594 100.516 108.697 100.669 108.824C100.829 108.951 100.949 109.077 101.029 109.204C101.083 109.284 101.113 109.354 101.119 109.414C101.126 109.474 101.076 109.547 100.969 109.634C100.883 109.694 100.806 109.727 100.739 109.734C100.673 109.741 100.606 109.714 100.539 109.654C100.379 109.487 100.196 109.351 99.9895 109.244C99.7895 109.131 99.5428 109.074 99.2495 109.074C98.9361 109.074 98.7128 109.141 98.5795 109.274C98.4461 109.401 98.3795 109.561 98.3795 109.754C98.3795 109.907 98.4261 110.044 98.5195 110.164C98.6195 110.284 98.7428 110.394 98.8895 110.494C99.0428 110.587 99.2061 110.684 99.3795 110.784C99.5528 110.877 99.7128 110.984 99.8595 111.104C100.013 111.224 100.136 111.371 100.229 111.544C100.329 111.711 100.379 111.914 100.379 112.154C100.379 112.541 100.289 112.854 100.109 113.094C99.9361 113.327 99.6995 113.497 99.3995 113.604C99.0995 113.711 98.7661 113.764 98.3995 113.764ZM102.562 113.744C102.289 113.744 102.075 113.694 101.922 113.594C101.775 113.494 101.675 113.361 101.622 113.194C101.575 113.027 101.562 112.847 101.582 112.654C101.609 112.461 101.652 112.271 101.712 112.084L102.812 108.744C102.859 108.611 102.912 108.524 102.972 108.484C103.039 108.444 103.135 108.424 103.262 108.424C103.469 108.424 103.599 108.457 103.652 108.524C103.712 108.584 103.719 108.681 103.672 108.814L102.592 112.104C102.479 112.444 102.435 112.677 102.462 112.804C102.489 112.931 102.589 112.994 102.762 112.994C102.855 112.994 102.922 113.034 102.962 113.114C103.009 113.187 103.025 113.274 103.012 113.374C103.005 113.467 102.962 113.551 102.882 113.624C102.809 113.704 102.702 113.744 102.562 113.744ZM103.882 106.884C103.749 106.884 103.635 106.841 103.542 106.754C103.449 106.667 103.402 106.541 103.402 106.374C103.402 106.194 103.459 106.024 103.572 105.864C103.692 105.704 103.875 105.624 104.122 105.624C104.262 105.624 104.379 105.667 104.472 105.754C104.565 105.834 104.612 105.961 104.612 106.134C104.612 106.314 104.552 106.484 104.432 106.644C104.319 106.804 104.135 106.884 103.882 106.884ZM102.554 113.744C102.454 113.744 102.39 113.704 102.364 113.624C102.337 113.551 102.34 113.467 102.374 113.374C102.4 113.274 102.447 113.187 102.514 113.114C102.58 113.034 102.654 112.994 102.734 112.994C102.847 112.994 102.97 112.954 103.104 112.874C103.237 112.787 103.377 112.661 103.524 112.494C103.664 112.327 103.814 112.121 103.974 111.874C104.134 111.621 104.297 111.324 104.464 110.984C104.75 110.404 105.007 109.944 105.234 109.604C105.467 109.257 105.68 108.997 105.874 108.824C106.074 108.651 106.264 108.537 106.444 108.484C106.63 108.424 106.814 108.394 106.994 108.394C107.06 108.394 107.104 108.434 107.124 108.514C107.144 108.587 107.144 108.674 107.124 108.774C107.104 108.867 107.064 108.954 107.004 109.034C106.95 109.107 106.877 109.144 106.784 109.144C106.704 109.144 106.61 109.167 106.504 109.214C106.404 109.261 106.29 109.351 106.164 109.484C106.044 109.617 105.904 109.811 105.744 110.064C105.59 110.311 105.41 110.634 105.204 111.034C104.91 111.634 104.64 112.114 104.394 112.474C104.147 112.834 103.917 113.107 103.704 113.294C103.49 113.474 103.29 113.594 103.104 113.654C102.917 113.714 102.734 113.744 102.554 113.744ZM109.364 113.744C109.084 113.744 108.87 113.691 108.724 113.584C108.577 113.484 108.477 113.354 108.424 113.194C108.377 113.027 108.364 112.847 108.384 112.654C108.41 112.454 108.454 112.264 108.514 112.084L109.184 110.134C109.244 109.954 109.277 109.794 109.284 109.654C109.29 109.507 109.254 109.394 109.174 109.314C109.1 109.227 108.967 109.184 108.774 109.184C108.56 109.184 108.327 109.264 108.074 109.424C107.827 109.584 107.574 109.811 107.314 110.104C107.054 110.397 106.797 110.747 106.544 111.154C106.297 111.554 106.067 111.997 105.854 112.484L105.544 113.464C105.517 113.551 105.467 113.614 105.394 113.654C105.327 113.701 105.217 113.724 105.064 113.724C104.957 113.724 104.857 113.701 104.764 113.654C104.677 113.607 104.654 113.521 104.694 113.394L105.964 109.444C105.99 109.357 105.99 109.287 105.964 109.234C105.944 109.174 105.887 109.144 105.794 109.144C105.707 109.144 105.647 109.107 105.614 109.034C105.58 108.954 105.57 108.867 105.584 108.774C105.604 108.674 105.647 108.587 105.714 108.514C105.787 108.434 105.88 108.394 105.994 108.394C106.22 108.394 106.394 108.434 106.514 108.514C106.634 108.587 106.714 108.691 106.754 108.824C106.794 108.951 106.81 109.091 106.804 109.244C106.797 109.391 106.777 109.534 106.744 109.674L106.594 110.134C106.787 109.854 106.984 109.607 107.184 109.394C107.39 109.174 107.597 108.991 107.804 108.844C108.017 108.691 108.23 108.577 108.444 108.504C108.664 108.424 108.884 108.384 109.104 108.384C109.43 108.384 109.68 108.464 109.854 108.624C110.034 108.777 110.134 109.004 110.154 109.304C110.174 109.604 110.114 109.967 109.974 110.394L109.394 112.104C109.28 112.444 109.237 112.677 109.264 112.804C109.29 112.931 109.394 112.994 109.574 112.994C109.667 112.994 109.734 113.034 109.774 113.114C109.814 113.187 109.827 113.274 109.814 113.374C109.807 113.467 109.764 113.551 109.684 113.624C109.61 113.704 109.504 113.744 109.364 113.744ZM109.37 113.744C109.276 113.744 109.206 113.704 109.16 113.624C109.113 113.551 109.096 113.467 109.11 113.374C109.123 113.274 109.166 113.187 109.24 113.114C109.313 113.034 109.42 112.994 109.56 112.994C109.733 112.994 109.916 112.941 110.11 112.834C110.296 112.721 110.486 112.567 110.68 112.374C110.873 112.174 111.063 111.937 111.25 111.664C111.443 111.391 111.633 111.094 111.82 110.774C111.866 110.681 111.933 110.641 112.02 110.654C112.113 110.661 112.19 110.701 112.25 110.774C112.31 110.841 112.316 110.917 112.27 111.004C112.043 111.451 111.813 111.847 111.58 112.194C111.346 112.534 111.11 112.821 110.87 113.054C110.63 113.281 110.386 113.454 110.14 113.574C109.893 113.687 109.636 113.744 109.37 113.744ZM113.7 113.744C113 113.744 112.473 113.554 112.12 113.174C111.766 112.787 111.59 112.291 111.59 111.684C111.59 111.331 111.653 110.964 111.78 110.584C111.913 110.197 112.106 109.837 112.36 109.504C112.613 109.171 112.926 108.901 113.3 108.694C113.68 108.487 114.113 108.384 114.6 108.384C114.993 108.384 115.323 108.444 115.59 108.564C115.863 108.684 116.1 108.861 116.3 109.094C116.4 109.214 116.433 109.317 116.4 109.404C116.373 109.484 116.32 109.561 116.24 109.634C116.153 109.701 116.066 109.741 115.98 109.754C115.893 109.761 115.803 109.714 115.71 109.614C115.583 109.474 115.426 109.367 115.24 109.294C115.053 109.221 114.81 109.184 114.51 109.184C114.176 109.184 113.883 109.267 113.63 109.434C113.376 109.601 113.163 109.817 112.99 110.084C112.823 110.344 112.696 110.621 112.61 110.914C112.53 111.201 112.49 111.471 112.49 111.724C112.49 111.937 112.533 112.141 112.62 112.334C112.706 112.527 112.846 112.684 113.04 112.804C113.233 112.917 113.486 112.974 113.8 112.974C113.893 112.974 113.956 113.014 113.99 113.094C114.03 113.167 114.043 113.257 114.03 113.364C114.016 113.464 113.98 113.551 113.92 113.624C113.866 113.704 113.793 113.744 113.7 113.744ZM113.641 113.744C113.581 113.744 113.538 113.704 113.511 113.624C113.485 113.551 113.478 113.464 113.491 113.364C113.498 113.257 113.521 113.167 113.561 113.094C113.601 113.014 113.658 112.974 113.731 112.974C114.058 112.974 114.385 112.947 114.711 112.894C115.038 112.834 115.385 112.734 115.751 112.594C116.118 112.454 116.525 112.264 116.971 112.024C117.011 111.997 117.055 112.007 117.101 112.054C117.155 112.101 117.198 112.164 117.231 112.244C117.271 112.317 117.295 112.391 117.301 112.464C117.308 112.537 117.285 112.591 117.231 112.624C116.798 112.897 116.375 113.117 115.961 113.284C115.541 113.451 115.141 113.567 114.761 113.634C114.375 113.707 114.001 113.744 113.641 113.744ZM118.651 113.744C118.231 113.744 117.888 113.654 117.621 113.474C117.361 113.287 117.168 113.037 117.041 112.724C116.915 112.411 116.851 112.057 116.851 111.664C116.851 111.337 116.911 110.987 117.031 110.614C117.158 110.234 117.338 109.877 117.571 109.544C117.805 109.204 118.095 108.927 118.441 108.714C118.788 108.494 119.185 108.384 119.631 108.384C119.871 108.384 120.078 108.427 120.251 108.514C120.431 108.594 120.571 108.714 120.671 108.874C120.771 109.034 120.821 109.227 120.821 109.454C120.821 109.714 120.745 109.971 120.591 110.224C120.445 110.477 120.235 110.731 119.961 110.984C119.688 111.237 119.361 111.494 118.981 111.754C118.608 112.007 118.195 112.267 117.741 112.534L117.461 111.864C117.735 111.704 118.015 111.527 118.301 111.334C118.588 111.141 118.851 110.941 119.091 110.734C119.338 110.527 119.538 110.327 119.691 110.134C119.845 109.934 119.921 109.747 119.921 109.574C119.921 109.427 119.881 109.324 119.801 109.264C119.721 109.204 119.618 109.174 119.491 109.174C119.211 109.174 118.965 109.261 118.751 109.434C118.538 109.601 118.358 109.814 118.211 110.074C118.065 110.327 117.951 110.594 117.871 110.874C117.791 111.154 117.751 111.401 117.751 111.614C117.751 111.894 117.788 112.134 117.861 112.334C117.941 112.534 118.055 112.687 118.201 112.794C118.355 112.894 118.541 112.944 118.761 112.944C118.975 112.944 119.171 112.904 119.351 112.824C119.531 112.744 119.701 112.637 119.861 112.504C120.021 112.364 120.181 112.214 120.341 112.054C120.421 111.961 120.511 111.927 120.611 111.954C120.711 111.974 120.798 112.021 120.871 112.094C120.945 112.174 120.985 112.257 120.991 112.344C121.005 112.424 120.971 112.511 120.891 112.604C120.645 112.891 120.395 113.117 120.141 113.284C119.895 113.451 119.645 113.567 119.391 113.634C119.145 113.707 118.898 113.744 118.651 113.744ZM124.603 113.574C124.51 113.574 124.44 113.537 124.393 113.464C124.34 113.391 124.32 113.304 124.333 113.204C124.34 113.104 124.39 113.017 124.483 112.944L127.573 110.514C128.08 110.114 128.536 109.744 128.943 109.404C129.356 109.064 129.72 108.744 130.033 108.444C130.353 108.144 130.626 107.861 130.853 107.594C131.086 107.327 131.276 107.077 131.423 106.844C131.576 106.611 131.69 106.384 131.763 106.164C131.836 105.944 131.873 105.731 131.873 105.524C131.873 105.237 131.81 105.001 131.683 104.814C131.563 104.627 131.38 104.487 131.133 104.394C130.893 104.301 130.596 104.254 130.243 104.254C129.776 104.254 129.356 104.341 128.983 104.514C128.61 104.681 128.226 104.904 127.833 105.184C127.7 105.291 127.583 105.344 127.483 105.344C127.39 105.337 127.29 105.271 127.183 105.144C127.096 105.051 127.063 104.961 127.083 104.874C127.11 104.787 127.2 104.681 127.353 104.554C127.6 104.341 127.883 104.151 128.203 103.984C128.53 103.811 128.883 103.674 129.263 103.574C129.643 103.474 130.033 103.424 130.433 103.424C130.773 103.424 131.083 103.471 131.363 103.564C131.65 103.657 131.896 103.791 132.103 103.964C132.31 104.137 132.47 104.347 132.583 104.594C132.696 104.841 132.753 105.114 132.753 105.414C132.753 105.681 132.713 105.951 132.633 106.224C132.553 106.491 132.433 106.764 132.273 107.044C132.113 107.324 131.903 107.617 131.643 107.924C131.39 108.224 131.086 108.541 130.733 108.874C130.386 109.207 129.986 109.567 129.533 109.954C129.08 110.334 128.576 110.744 128.023 111.184L126.003 112.774H130.433C130.5 112.774 130.546 112.791 130.573 112.824C130.606 112.857 130.623 112.907 130.623 112.974C130.623 113.154 130.58 113.301 130.493 113.414C130.413 113.521 130.323 113.574 130.223 113.574H124.603ZM135.586 113.764C135.08 113.764 134.626 113.657 134.226 113.444C133.826 113.231 133.51 112.901 133.276 112.454C133.043 112.001 132.926 111.424 132.926 110.724C132.926 110.197 132.983 109.654 133.096 109.094C133.21 108.527 133.373 107.971 133.586 107.424C133.806 106.877 134.073 106.364 134.386 105.884C134.706 105.404 135.066 104.981 135.466 104.614C135.873 104.241 136.32 103.951 136.806 103.744C137.3 103.531 137.83 103.424 138.396 103.424C138.896 103.424 139.343 103.534 139.736 103.754C140.136 103.967 140.45 104.294 140.676 104.734C140.91 105.174 141.026 105.731 141.026 106.404C141.026 106.937 140.97 107.491 140.856 108.064C140.743 108.637 140.58 109.201 140.366 109.754C140.153 110.301 139.89 110.814 139.576 111.294C139.263 111.774 138.903 112.201 138.496 112.574C138.096 112.941 137.65 113.231 137.156 113.444C136.67 113.657 136.146 113.764 135.586 113.764ZM135.796 112.904C136.203 112.904 136.59 112.814 136.956 112.634C137.33 112.454 137.676 112.204 137.996 111.884C138.316 111.564 138.603 111.197 138.856 110.784C139.116 110.364 139.336 109.921 139.516 109.454C139.696 108.981 139.833 108.504 139.926 108.024C140.026 107.544 140.076 107.081 140.076 106.634C140.076 106.054 140 105.594 139.846 105.254C139.693 104.914 139.473 104.667 139.186 104.514C138.906 104.361 138.573 104.284 138.186 104.284C137.773 104.284 137.376 104.374 136.996 104.554C136.623 104.734 136.276 104.984 135.956 105.304C135.636 105.624 135.346 105.991 135.086 106.404C134.833 106.817 134.616 107.257 134.436 107.724C134.256 108.184 134.116 108.654 134.016 109.134C133.923 109.607 133.876 110.061 133.876 110.494C133.876 111.101 133.956 111.581 134.116 111.934C134.276 112.287 134.5 112.537 134.786 112.684C135.073 112.831 135.41 112.904 135.796 112.904ZM140.423 113.574C140.33 113.574 140.26 113.537 140.213 113.464C140.16 113.391 140.14 113.304 140.153 113.204C140.16 113.104 140.21 113.017 140.303 112.944L143.393 110.514C143.9 110.114 144.357 109.744 144.763 109.404C145.177 109.064 145.54 108.744 145.853 108.444C146.173 108.144 146.447 107.861 146.673 107.594C146.907 107.327 147.097 107.077 147.243 106.844C147.397 106.611 147.51 106.384 147.583 106.164C147.657 105.944 147.693 105.731 147.693 105.524C147.693 105.237 147.63 105.001 147.503 104.814C147.383 104.627 147.2 104.487 146.953 104.394C146.713 104.301 146.417 104.254 146.063 104.254C145.597 104.254 145.177 104.341 144.803 104.514C144.43 104.681 144.047 104.904 143.653 105.184C143.52 105.291 143.403 105.344 143.303 105.344C143.21 105.337 143.11 105.271 143.003 105.144C142.917 105.051 142.883 104.961 142.903 104.874C142.93 104.787 143.02 104.681 143.173 104.554C143.42 104.341 143.703 104.151 144.023 103.984C144.35 103.811 144.703 103.674 145.083 103.574C145.463 103.474 145.853 103.424 146.253 103.424C146.593 103.424 146.903 103.471 147.183 103.564C147.47 103.657 147.717 103.791 147.923 103.964C148.13 104.137 148.29 104.347 148.403 104.594C148.517 104.841 148.573 105.114 148.573 105.414C148.573 105.681 148.533 105.951 148.453 106.224C148.373 106.491 148.253 106.764 148.093 107.044C147.933 107.324 147.723 107.617 147.463 107.924C147.21 108.224 146.907 108.541 146.553 108.874C146.207 109.207 145.807 109.567 145.353 109.954C144.9 110.334 144.397 110.744 143.843 111.184L141.823 112.774H146.253C146.32 112.774 146.367 112.791 146.393 112.824C146.427 112.857 146.443 112.907 146.443 112.974C146.443 113.154 146.4 113.301 146.313 113.414C146.233 113.521 146.143 113.574 146.043 113.574H140.423ZM151.407 113.764C150.9 113.764 150.447 113.657 150.047 113.444C149.647 113.231 149.33 112.901 149.097 112.454C148.863 112.001 148.747 111.424 148.747 110.724C148.747 110.197 148.803 109.654 148.917 109.094C149.03 108.527 149.193 107.971 149.407 107.424C149.627 106.877 149.893 106.364 150.207 105.884C150.527 105.404 150.887 104.981 151.287 104.614C151.693 104.241 152.14 103.951 152.627 103.744C153.12 103.531 153.65 103.424 154.217 103.424C154.717 103.424 155.163 103.534 155.557 103.754C155.957 103.967 156.27 104.294 156.497 104.734C156.73 105.174 156.847 105.731 156.847 106.404C156.847 106.937 156.79 107.491 156.677 108.064C156.563 108.637 156.4 109.201 156.187 109.754C155.973 110.301 155.71 110.814 155.397 111.294C155.083 111.774 154.723 112.201 154.317 112.574C153.917 112.941 153.47 113.231 152.977 113.444C152.49 113.657 151.967 113.764 151.407 113.764ZM151.617 112.904C152.023 112.904 152.41 112.814 152.777 112.634C153.15 112.454 153.497 112.204 153.817 111.884C154.137 111.564 154.423 111.197 154.677 110.784C154.937 110.364 155.157 109.921 155.337 109.454C155.517 108.981 155.653 108.504 155.747 108.024C155.847 107.544 155.897 107.081 155.897 106.634C155.897 106.054 155.82 105.594 155.667 105.254C155.513 104.914 155.293 104.667 155.007 104.514C154.727 104.361 154.393 104.284 154.007 104.284C153.593 104.284 153.197 104.374 152.817 104.554C152.443 104.734 152.097 104.984 151.777 105.304C151.457 105.624 151.167 105.991 150.907 106.404C150.653 106.817 150.437 107.257 150.257 107.724C150.077 108.184 149.937 108.654 149.837 109.134C149.743 109.607 149.697 110.061 149.697 110.494C149.697 111.101 149.777 111.581 149.937 111.934C150.097 112.287 150.32 112.537 150.607 112.684C150.893 112.831 151.23 112.904 151.617 112.904Z" fill="#05343B"/>
</svg>
